<svg width="42" height="41" viewBox="0 0 42 41" fill="none" xmlns="http://www.w3.org/2000/svg">
<path d="M29.9736 0.00570143C29.6233 0.0808041 29.3109 0.277406 29.0916 0.560714C28.8723 0.844022 28.7603 1.19577 28.7754 1.5537V38.2968C28.7399 38.514 28.7519 38.7363 28.8108 38.9483C28.8697 39.1603 28.974 39.357 29.1165 39.5247C29.2589 39.6925 29.4362 39.8272 29.6359 39.9196C29.8356 40.012 30.0531 40.0598 30.2731 40.0598C30.4932 40.0598 30.7106 40.012 30.9103 39.9196C31.11 39.8272 31.2873 39.6925 31.4298 39.5247C31.5722 39.357 31.6765 39.1603 31.7354 38.9483C31.7943 38.7363 31.8064 38.514 31.7708 38.2968V1.5537C31.7759 1.34035 31.7359 1.12832 31.6534 0.931466C31.571 0.734611 31.448 0.557355 31.2924 0.411271C31.1368 0.265186 30.9522 0.153558 30.7505 0.0836732C30.5489 0.0137889 30.3348 -0.01278 30.1221 0.00570143C30.0727 0.00327594 30.0231 0.00327594 29.9736 0.00570143ZM10.8033 1.60323C10.453 1.67833 10.1405 1.87493 9.92126 2.15824C9.70198 2.44155 9.59 2.79329 9.60512 3.15123V36.6993C9.56954 36.9164 9.58162 37.1387 9.6405 37.3508C9.69939 37.5628 9.80369 37.7595 9.94616 37.9272C10.0886 38.0949 10.2659 38.2297 10.4656 38.3221C10.6653 38.4144 10.8827 38.4623 11.1028 38.4623C11.3229 38.4623 11.5403 38.4144 11.74 38.3221C11.9397 38.2297 12.117 38.0949 12.2595 37.9272C12.4019 37.7595 12.5062 37.5628 12.5651 37.3508C12.624 37.1387 12.6361 36.9164 12.6005 36.6993V3.15123C12.6056 2.93787 12.5656 2.72585 12.4831 2.52899C12.4007 2.33214 12.2777 2.15488 12.1221 2.0088C11.9665 1.86271 11.7819 1.75108 11.5802 1.6812C11.3786 1.61131 11.1645 1.58475 10.9518 1.60323C10.9023 1.6008 10.8528 1.6008 10.8033 1.60323ZM25.181 9.59086C24.8307 9.66596 24.5183 9.86256 24.299 10.1459C24.0797 10.4292 23.9677 10.7809 23.9829 11.1389V28.7116C23.9465 28.9291 23.958 29.1519 24.0165 29.3644C24.0749 29.577 24.179 29.7743 24.3215 29.9425C24.464 30.1108 24.6414 30.246 24.8414 30.3387C25.0414 30.4315 25.2593 30.4795 25.4797 30.4795C25.7002 30.4795 25.918 30.4315 26.1181 30.3387C26.3181 30.246 26.4955 30.1108 26.638 29.9425C26.7804 29.7743 26.8845 29.577 26.943 29.3644C27.0015 29.1519 27.013 28.9291 26.9766 28.7116V11.1389C26.9816 10.9258 26.9417 10.7141 26.8595 10.5174C26.7773 10.3208 26.6545 10.1437 26.4993 9.99771C26.3441 9.85167 26.1598 9.73997 25.9586 9.66987C25.7573 9.59977 25.5435 9.57285 25.3312 9.59086C25.2806 9.58833 25.2316 9.58833 25.181 9.59086ZM6.01069 11.1884C5.6604 11.2635 5.34796 11.4601 5.12869 11.7434C4.90941 12.0267 4.79742 12.3784 4.81255 12.7364V27.1141C4.7762 27.3316 4.78766 27.5543 4.84615 27.7669C4.90463 27.9795 5.00873 28.1768 5.1512 28.345C5.29367 28.5133 5.47108 28.6485 5.67111 28.7412C5.87113 28.8339 6.08896 28.882 6.30943 28.882C6.5299 28.882 6.74773 28.8339 6.94775 28.7412C7.14777 28.6485 7.32519 28.5133 7.46766 28.345C7.61013 28.1768 7.71422 27.9795 7.77271 27.7669C7.83119 27.5543 7.84266 27.3316 7.80631 27.1141V12.7364C7.81133 12.5233 7.77143 12.3116 7.68919 12.115C7.60695 11.9184 7.48422 11.7413 7.32899 11.5952C7.17376 11.4492 6.98952 11.3375 6.78826 11.2674C6.58699 11.1973 6.37322 11.1704 6.16086 11.1884C6.1103 11.1859 6.06125 11.1859 6.01069 11.1884ZM15.5958 12.7859C15.2456 12.861 14.9331 13.0576 14.7138 13.3409C14.4946 13.6242 14.3826 13.976 14.3977 14.3339V25.5166C14.3614 25.734 14.3728 25.9568 14.4313 26.1694C14.4898 26.382 14.5939 26.5792 14.7364 26.7475C14.8788 26.9158 15.0562 27.051 15.2563 27.1437C15.4563 27.2364 15.6741 27.2845 15.8946 27.2845C16.1151 27.2845 16.3329 27.2364 16.5329 27.1437C16.7329 27.051 16.9103 26.9158 17.0528 26.7475C17.1953 26.5792 17.2994 26.382 17.3579 26.1694C17.4163 25.9568 17.4278 25.734 17.3915 25.5166V14.3339C17.3965 14.1208 17.3566 13.9091 17.2743 13.7125C17.1921 13.5159 17.0694 13.3388 16.9141 13.1928C16.7589 13.0467 16.5747 12.935 16.3734 12.8649C16.1721 12.7948 15.9584 12.7679 15.746 12.7859C15.6955 12.7834 15.6464 12.7834 15.5958 12.7859ZM34.7662 12.7859C34.4159 12.861 34.1034 13.0576 33.8841 13.3409C33.6649 13.6242 33.5529 13.976 33.568 14.3339V25.5166C33.5324 25.7338 33.5445 25.9561 33.6034 26.1681C33.6623 26.3801 33.7666 26.5768 33.909 26.7445C34.0515 26.9123 34.2288 27.047 34.4285 27.1394C34.6282 27.2318 34.8456 27.2796 35.0657 27.2796C35.2858 27.2796 35.5032 27.2318 35.7029 27.1394C35.9026 27.047 36.0799 26.9123 36.2223 26.7445C36.3648 26.5768 36.4691 26.3801 36.528 26.1681C36.5869 25.9561 36.599 25.7338 36.5634 25.5166V14.3339C36.5684 14.1206 36.5285 13.9085 36.446 13.7117C36.3636 13.5148 36.2406 13.3376 36.085 13.1915C35.9294 13.0454 35.7448 12.9338 35.5431 12.8639C35.3415 12.794 35.1273 12.7674 34.9147 12.7859C34.8652 12.7835 34.8156 12.7835 34.7662 12.7859ZM1.21811 15.981C0.867819 16.0561 0.555387 16.2527 0.336108 16.536C0.116829 16.8193 0.00484355 17.171 0.0199691 17.529V22.3215C-0.0156117 22.5387 -0.00353989 22.761 0.0553478 22.973C0.114235 23.1851 0.21853 23.3818 0.361002 23.5495C0.503474 23.7172 0.680715 23.8519 0.880438 23.9443C1.08016 24.0367 1.29759 24.0846 1.51765 24.0846C1.73771 24.0846 1.95514 24.0367 2.15486 23.9443C2.35458 23.8519 2.53183 23.7172 2.6743 23.5495C2.81677 23.3818 2.92106 23.1851 2.97995 22.973C3.03884 22.761 3.05091 22.5387 3.01533 22.3215V17.529C3.0204 17.3156 2.98041 17.1036 2.89798 16.9067C2.81555 16.7099 2.69253 16.5326 2.53695 16.3865C2.38137 16.2404 2.19672 16.1288 1.99507 16.0589C1.79342 15.989 1.5793 15.9625 1.36668 15.981C1.31666 15.9785 1.26654 15.9785 1.21652 15.981H1.21811ZM20.3884 15.981C20.0381 16.0561 19.7257 16.2527 19.5064 16.536C19.2871 16.8193 19.1752 17.171 19.1903 17.529V22.3215C19.1539 22.539 19.1654 22.7618 19.2239 22.9743C19.2824 23.1869 19.3865 23.3842 19.5289 23.5524C19.6714 23.7207 19.8488 23.8559 20.0488 23.9486C20.2489 24.0414 20.4667 24.0894 20.6872 24.0894C20.9076 24.0894 21.1255 24.0414 21.3255 23.9486C21.5255 23.8559 21.7029 23.7207 21.8454 23.5524C21.9879 23.3842 22.092 23.1869 22.1504 22.9743C22.2089 22.7618 22.2204 22.539 22.184 22.3215V17.529C22.1891 17.3159 22.1492 17.1042 22.0669 16.9076C21.9847 16.7109 21.862 16.5338 21.7067 16.3878C21.5515 16.2418 21.3673 16.1301 21.166 16.06C20.9647 15.9899 20.751 15.963 20.5386 15.981C20.488 15.9784 20.439 15.9784 20.3884 15.981ZM39.5587 15.981C39.2084 16.0561 38.896 16.2527 38.6767 16.536C38.4574 16.8193 38.3455 17.171 38.3606 17.529V22.3215C38.325 22.5387 38.3371 22.761 38.396 22.973C38.4549 23.1851 38.5592 23.3818 38.7016 23.5495C38.8441 23.7172 39.0213 23.8519 39.2211 23.9443C39.4208 24.0367 39.6382 24.0846 39.8583 24.0846C40.0783 24.0846 40.2958 24.0367 40.4955 23.9443C40.6952 23.8519 40.8724 23.7172 41.0149 23.5495C41.1574 23.3818 41.2617 23.1851 41.3206 22.973C41.3795 22.761 41.3915 22.5387 41.3559 22.3215V17.529C41.361 17.3156 41.321 17.1036 41.2386 16.9067C41.1562 16.7099 41.0331 16.5326 40.8776 16.3865C40.722 16.2404 40.5373 16.1288 40.3357 16.0589C40.134 15.989 39.9199 15.9625 39.7073 15.981C39.6578 15.9785 39.6082 15.9785 39.5587 15.981Z" fill="url(#paint0_linear_819_152)"/>
<defs>
<linearGradient id="paint0_linear_819_152" x1="20.688" y1="3.19505" x2="20.688" y2="36.8648" gradientUnits="userSpaceOnUse">
<stop stop-color="#00CCFC"/>
<stop offset="1" stop-color="#00DEFC"/>
</linearGradient>
</defs>
</svg>
