<svg width="20" height="20" viewBox="0 0 20 20" fill="none" xmlns="http://www.w3.org/2000/svg">
<path d="M6.70711 10.2929C6.31658 9.90237 5.68342 9.90237 5.29289 10.2929C4.90237 10.6834 4.90237 11.3166 5.29289 11.7071L6.70711 10.2929ZM8.5 13.5L7.79289 14.2071C8.18342 14.5976 8.81658 14.5976 9.20711 14.2071L8.5 13.5ZM14.7071 8.70711C15.0976 8.31658 15.0976 7.68342 14.7071 7.29289C14.3166 6.90237 13.6834 6.90237 13.2929 7.29289L14.7071 8.70711ZM10 1V2V1ZM5.29289 11.7071L7.79289 14.2071L9.20711 12.7929L6.70711 10.2929L5.29289 11.7071ZM9.20711 14.2071L14.7071 8.70711L13.2929 7.29289L7.79289 12.7929L9.20711 14.2071ZM18 10C18 11.0506 17.7931 12.0909 17.391 13.0615L19.2388 13.8268C19.7413 12.6136 20 11.3132 20 10H18ZM17.391 13.0615C16.989 14.0321 16.3997 14.914 15.6569 15.6569L17.0711 17.0711C17.9997 16.1425 18.7362 15.0401 19.2388 13.8268L17.391 13.0615ZM15.6569 15.6569C14.914 16.3997 14.0321 16.989 13.0615 17.391L13.8268 19.2388C15.0401 18.7362 16.1425 17.9997 17.0711 17.0711L15.6569 15.6569ZM13.0615 17.391C12.0909 17.7931 11.0506 18 10 18V20C11.3132 20 12.6136 19.7413 13.8268 19.2388L13.0615 17.391ZM10 18C8.94942 18 7.90914 17.7931 6.93853 17.391L6.17317 19.2388C7.38642 19.7413 8.68678 20 10 20V18ZM6.93853 17.391C5.96793 16.989 5.08601 16.3997 4.34315 15.6569L2.92893 17.0711C3.85752 17.9997 4.95991 18.7362 6.17317 19.2388L6.93853 17.391ZM4.34315 15.6569C3.60028 14.914 3.011 14.0321 2.60896 13.0615L0.761205 13.8268C1.26375 15.0401 2.00035 16.1425 2.92893 17.0711L4.34315 15.6569ZM2.60896 13.0615C2.20693 12.0909 2 11.0506 2 10H0C0 11.3132 0.258658 12.6136 0.761205 13.8268L2.60896 13.0615ZM2 10C2 7.87827 2.84285 5.84344 4.34315 4.34315L2.92893 2.92893C1.05357 4.8043 5.96046e-08 7.34784 0 10H2ZM4.34315 4.34315C5.84344 2.84285 7.87827 2 10 2V0C7.34784 0 4.8043 1.05357 2.92893 2.92893L4.34315 4.34315ZM10 2C12.1217 2 14.1566 2.84285 15.6569 4.34315L17.0711 2.92893C15.1957 1.05357 12.6522 0 10 0V2ZM15.6569 4.34315C17.1571 5.84344 18 7.87827 18 10H20C20 7.34784 18.9464 4.8043 17.0711 2.92893L15.6569 4.34315Z" fill="#FF8F40"/>
</svg>
