<svg width="17" height="16" viewBox="0 0 17 16" fill="none" xmlns="http://www.w3.org/2000/svg">
<path d="M12.1149 1.40625V1.42303H12.1317H15.5285C15.8777 1.42303 16.1588 1.69536 16.1588 2.03125V15C16.1588 15.3359 15.8777 15.6082 15.5285 15.6082H0.647022C0.297852 15.6082 0.0167785 15.3359 0.0167785 15V2.03125C0.0167785 1.69536 0.297852 1.42303 0.647022 1.42303H4.04389H4.06067V1.40625V0.15625C4.06067 0.0801219 4.12539 0.0167785 4.20564 0.0167785H5.33793C5.41818 0.0167785 5.48291 0.0801219 5.48291 0.15625V1.40625V1.42303H5.49969H10.6759H10.6926V1.40625V0.15625C10.6926 0.0801219 10.7574 0.0167785 10.8376 0.0167785H11.9699C12.0502 0.0167785 12.1149 0.0801219 12.1149 0.15625V1.40625ZM14.7197 14.2355H14.7365V14.2188V6.79688V6.7801H14.7197H1.4558H1.43902V6.79688V14.2188V14.2355H1.4558H14.7197ZM1.43902 5.46875V5.48553H1.4558H14.7197H14.7365V5.46875V2.8125V2.79572H14.7197H12.1317H12.1149V2.8125V3.75C12.1149 3.82613 12.0502 3.88947 11.9699 3.88947H10.8376C10.7574 3.88947 10.6926 3.82613 10.6926 3.75V2.8125V2.79572H10.6759H5.49969H5.48291V2.8125V3.75C5.48291 3.82613 5.41818 3.88947 5.33793 3.88947H4.20564C4.12539 3.88947 4.06067 3.82613 4.06067 3.75V2.8125V2.79572H4.04389H1.4558H1.43902V2.8125V5.46875Z" fill="url(#paint0_linear_814_246)" stroke="url(#paint1_linear_814_246)" stroke-width="0.033557"/>
<defs>
<linearGradient id="paint0_linear_814_246" x1="8.08777" y1="0" x2="8.08777" y2="15.625" gradientUnits="userSpaceOnUse">
<stop stop-color="#00CCFC"/>
<stop offset="1" stop-color="#00DEFC"/>
</linearGradient>
<linearGradient id="paint1_linear_814_246" x1="0.92763" y1="2.0587" x2="14.1067" y2="16.0702" gradientUnits="userSpaceOnUse">
<stop stop-color="#00CCFC"/>
<stop offset="0.296875" stop-color="#00B2FF"/>
<stop offset="0.604167" stop-color="#0066FF"/>
<stop offset="1" stop-color="#00DEFC"/>
</linearGradient>
</defs>
</svg>
