<svg width="398" height="416" viewBox="0 0 398 416" fill="none" xmlns="http://www.w3.org/2000/svg">
<g style="mix-blend-mode:lighten" filter="url(#filter0_f_929_2)">
<path d="M51 155.444C72.6215 94.581 130.721 51 199 51C267.279 51 325.379 94.581 347 155.444M343.045 270.613C318.864 326.182 263.469 365.036 199 365.036C134.531 365.036 79.1359 326.182 54.9548 270.613" stroke="url(#paint0_linear_929_2)" stroke-width="5" stroke-linecap="round" stroke-linejoin="round"/>
</g>
<g style="mix-blend-mode:soft-light" filter="url(#filter1_f_929_2)">
<path d="M51 155.444C72.6215 94.581 130.721 51 199 51C267.279 51 325.379 94.581 347 155.444M343.045 270.613C318.864 326.182 263.469 365.036 199 365.036C134.531 365.036 79.1359 326.182 54.9548 270.613" stroke="url(#paint1_linear_929_2)" stroke-width="5" stroke-linecap="round" stroke-linejoin="round"/>
</g>
<path d="M51 155.444C72.6215 94.581 130.721 51 199 51C267.279 51 325.379 94.581 347 155.444M343.045 270.613C318.864 326.182 263.469 365.036 199 365.036C134.531 365.036 79.1359 326.182 54.9548 270.613" stroke="url(#paint2_linear_929_2)" stroke-width="5" stroke-linecap="round" stroke-linejoin="round"/>
<defs>
<filter id="filter0_f_929_2" x="24.499" y="24.5" width="349.002" height="367.036" filterUnits="userSpaceOnUse" color-interpolation-filters="sRGB">
<feFlood flood-opacity="0" result="BackgroundImageFix"/>
<feBlend mode="normal" in="SourceGraphic" in2="BackgroundImageFix" result="shape"/>
<feGaussianBlur stdDeviation="12" result="effect1_foregroundBlur_929_2"/>
</filter>
<filter id="filter1_f_929_2" x="0.499023" y="0.5" width="397.002" height="415.036" filterUnits="userSpaceOnUse" color-interpolation-filters="sRGB">
<feFlood flood-opacity="0" result="BackgroundImageFix"/>
<feBlend mode="normal" in="SourceGraphic" in2="BackgroundImageFix" result="shape"/>
<feGaussianBlur stdDeviation="24" result="effect1_foregroundBlur_929_2"/>
</filter>
<linearGradient id="paint0_linear_929_2" x1="67.9749" y1="92.3763" x2="333.208" y2="349.122" gradientUnits="userSpaceOnUse">
<stop stop-color="#00CCFC"/>
<stop offset="0.296875" stop-color="#00B2FF"/>
<stop offset="0.604167" stop-color="#0066FF"/>
<stop offset="1" stop-color="#00DEFC"/>
</linearGradient>
<linearGradient id="paint1_linear_929_2" x1="67.9749" y1="92.3763" x2="333.208" y2="349.122" gradientUnits="userSpaceOnUse">
<stop stop-color="#00CCFC"/>
<stop offset="0.296875" stop-color="#00B2FF"/>
<stop offset="0.604167" stop-color="#0066FF"/>
<stop offset="1" stop-color="#00DEFC"/>
</linearGradient>
<linearGradient id="paint2_linear_929_2" x1="67.9749" y1="92.3763" x2="333.208" y2="349.122" gradientUnits="userSpaceOnUse">
<stop stop-color="#00CCFC"/>
<stop offset="0.296875" stop-color="#00B2FF"/>
<stop offset="0.604167" stop-color="#0066FF"/>
<stop offset="1" stop-color="#00DEFC"/>
</linearGradient>
</defs>
</svg>
