<svg width="40" height="40" viewBox="0 0 40 40" fill="none" xmlns="http://www.w3.org/2000/svg">
<path d="M2.93059 3.42222C2.93059 3.29256 2.98205 3.16821 3.07365 3.07653C3.16525 2.98484 3.28948 2.93333 3.41902 2.93333H29.7944C29.9239 2.93333 30.0481 2.98484 30.1397 3.07653C30.2313 3.16821 30.2828 3.29256 30.2828 3.42222V22.9778C30.2828 23.3668 30.4372 23.7398 30.712 24.0149C30.9868 24.2899 31.3595 24.4444 31.7481 24.4444C32.1367 24.4444 32.5094 24.2899 32.7842 24.0149C33.059 23.7398 33.2134 23.3668 33.2134 22.9778V3.42222C33.2134 2.51459 32.8532 1.64414 32.212 1.00235C31.5708 0.360555 30.7011 0 29.7944 0H3.41902C2.51224 0 1.6426 0.360555 1.00141 1.00235C0.360218 1.64414 0 2.51459 0 3.42222V35.6889C0 37.578 1.53172 39.1111 3.41902 39.1111H17.0951C17.4837 39.1111 17.8564 38.9566 18.1312 38.6815C18.406 38.4065 18.5604 38.0334 18.5604 37.6444C18.5604 37.2555 18.406 36.8824 18.1312 36.6074C17.8564 36.3323 17.4837 36.1778 17.0951 36.1778H3.41902C3.28948 36.1778 3.16525 36.1263 3.07365 36.0346C2.98205 35.9429 2.93059 35.8186 2.93059 35.6889V3.42222Z" fill="#01D6FD"/>
<path d="M8.30334 9.77778C7.91472 9.77778 7.54202 9.9323 7.26722 10.2074C6.99243 10.4824 6.83805 10.8555 6.83805 11.2444C6.83805 11.6334 6.99243 12.0065 7.26722 12.2815C7.54202 12.5566 7.91472 12.7111 8.30334 12.7111H24.91C25.2987 12.7111 25.6714 12.5566 25.9462 12.2815C26.2209 12.0065 26.3753 11.6334 26.3753 11.2444C26.3753 10.8555 26.2209 10.4824 25.9462 10.2074C25.6714 9.9323 25.2987 9.77778 24.91 9.77778H8.30334ZM6.83805 19.0667C6.83805 18.6777 6.99243 18.3046 7.26722 18.0296C7.54202 17.7545 7.91472 17.6 8.30334 17.6H17.0951C17.4837 17.6 17.8564 17.7545 18.1312 18.0296C18.406 18.3046 18.5604 18.6777 18.5604 19.0667C18.5604 19.4557 18.406 19.8287 18.1312 20.1038C17.8564 20.3788 17.4837 20.5333 17.0951 20.5333H8.30334C7.91472 20.5333 7.54202 20.3788 7.26722 20.1038C6.99243 19.8287 6.83805 19.4557 6.83805 19.0667ZM38.6447 27.9253C38.7887 27.7911 38.9042 27.6291 38.9843 27.4492C39.0644 27.2693 39.1074 27.0751 39.1109 26.8782C39.1144 26.6812 39.0782 26.4856 39.0045 26.303C38.9308 26.1204 38.8211 25.9545 38.6819 25.8152C38.5428 25.6759 38.3771 25.5661 38.1946 25.4924C38.0121 25.4186 37.8167 25.3824 37.62 25.3859C37.4232 25.3893 37.2292 25.4324 37.0494 25.5126C36.8697 25.5928 36.7079 25.7083 36.5738 25.8524L26.8638 35.5716L23.0149 31.7191C22.8808 31.575 22.719 31.4594 22.5393 31.3793C22.3595 31.2991 22.1655 31.256 21.9687 31.2525C21.772 31.2491 21.5766 31.2853 21.3941 31.359C21.2117 31.4328 21.0459 31.5426 20.9068 31.6819C20.7676 31.8212 20.6579 31.9871 20.5842 32.1697C20.5105 32.3523 20.4743 32.5479 20.4778 32.7448C20.4813 32.9418 20.5244 33.136 20.6044 33.3159C20.6845 33.4958 20.8 33.6577 20.944 33.792L25.8283 38.6809C26.103 38.9555 26.4755 39.1098 26.8638 39.1098C27.2521 39.1098 27.6245 38.9555 27.8992 38.6809L38.6447 27.9253Z" fill="#01D6FD"/>
</svg>
