<svg width="871" height="837" viewBox="0 0 871 837" fill="none" xmlns="http://www.w3.org/2000/svg">
<g clip-path="url(#clip0_806_227)">
<g opacity="0.2">
<path d="M154.23 659.315C895.5 618.439 580.42 232.942 684.99 106.343C714.2 70.9782 771.79 82.8199 802.87 111.784C844.63 150.7 818.58 228.161 757.24 219.39C695.32 210.539 683.39 114.024 719.81 74.1086C737.88 54.3057 765.87 46.1144 792.67 45.8444C891.75 44.8642 966.17 132.027 1048.8 175.714C1109.23 207.668 1176.41 229.952 1244.74 227.931C1321.03 225.681 1393.73 189.686 1437.22 126.156C1542.85 -28.1165 1529.7 -330.551 1770.19 -359.986C1982.65 -385.979 2143.03 -146.594 2232.16 13.1997" stroke="url(#paint0_linear_806_227)" stroke-width="0.5658" stroke-miterlimit="10"/>
<path d="M2231.23 6.01859C2176.28 -89.0055 2094.5 -212.454 1993.05 -286.875C1949.87 -318.459 1903.75 -341.023 1854.32 -349.944C1826.99 -354.875 1798.52 -355.615 1768.97 -351.244C1722.21 -344.433 1684.93 -327.331 1654.32 -303.197C1598.79 -259.441 1564.92 -191.841 1537.16 -121.78C1517.72 -72.7131 1501.68 -23.0458 1484.99 23.4611C1472.45 58.4163 1458.45 91.8513 1439.89 120.746C1422.13 148.45 1398.42 171.393 1371.04 188.606C1335.83 210.789 1294.72 223.531 1252.26 225.631C1184.48 229.132 1117.04 208.119 1056.22 176.044C971.74 131.547 897 50.1952 801.74 53.5657C795.48 53.7857 789.19 54.4958 783.03 55.696C764.05 59.3865 745.98 67.5977 733.28 81.8598C699.28 119.925 711.39 210.699 768.72 218.02C778.27 219.24 786.85 218.29 794.35 215.58C832.81 201.918 843.4 144.829 808.37 114.175C777.23 86.9206 720.62 76.299 691.39 111.784C680.51 124.986 674.06 140.959 670.41 159.021C639.17 313.944 800.36 619.97 155.09 642.893" stroke="url(#paint1_linear_806_227)" stroke-width="0.5658" stroke-miterlimit="10"/>
<path d="M2230.3 -1.18266C2174.09 -94.9566 2090.08 -216.715 1988.41 -286.945C1945.06 -316.719 1899.74 -336.822 1851.41 -343.873C1824.68 -347.754 1796.79 -347.534 1767.76 -342.543C1721.91 -334.662 1685.05 -317.119 1654.47 -292.846C1599.19 -249.039 1563.82 -182.22 1534.74 -115.39C1514.38 -68.5827 1497.93 -22.956 1483.27 20.7505C1472.14 53.9454 1459.82 86.5403 1442.56 115.295C1426.08 142.899 1403.29 166.272 1376.59 183.955C1342.25 206.828 1301.79 220.28 1259.78 223.301C1192.53 228.131 1124.84 208.538 1063.63 176.354C977.29 131.047 902.21 55.5057 810.81 61.2765C804.82 61.6566 798.85 62.5467 793.06 63.8769C775.29 67.9575 758.5 76.0587 746.75 89.6007C715.17 125.826 727.46 210.829 780.2 216.64C789.19 217.63 797.22 216.63 804.17 213.889C840.28 200.137 849.04 145.369 813.85 116.555C782.66 91.011 727.01 81.6096 697.76 117.215C686.91 130.407 680.35 146.309 676.51 164.262C643.62 318.205 782.58 617.229 155.93 626.47" stroke="url(#paint2_linear_806_227)" stroke-width="0.5658" stroke-miterlimit="10"/>
<path d="M2229.36 -8.3837C2171.89 -100.907 2085.65 -220.975 1983.76 -287.005C1940.24 -314.959 1895.72 -332.622 1848.49 -337.782C1822.36 -340.613 1795.05 -339.463 1766.54 -333.812C1721.61 -324.911 1685.15 -306.868 1654.6 -282.464C1599.57 -238.598 1562.71 -172.578 1532.31 -108.969C1511.03 -64.4219 1494.18 -22.8458 1481.54 18.0603C1471.83 49.4849 1461.17 81.2496 1445.21 109.874C1430.02 137.388 1408.14 161.171 1382.13 179.334C1348.66 202.888 1308.85 217.11 1267.29 221C1200.58 227.251 1132.64 208.989 1071.04 176.684C982.85 130.577 907.38 60.8365 819.88 68.9978C814.16 69.5278 808.51 70.5981 803.08 72.0583C786.52 76.5389 771.01 84.5101 760.21 97.342C731.05 131.717 743.51 210.939 791.67 215.269C800.11 216.03 807.58 214.979 813.99 212.209C847.76 198.367 854.7 145.919 819.34 118.945C788.1 95.1117 733.41 86.9304 704.15 122.646C693.34 135.828 686.67 151.66 682.63 169.513C648.09 322.475 764.83 614.498 156.79 610.058" stroke="url(#paint3_linear_806_227)" stroke-width="0.5658" stroke-miterlimit="10"/>
<path d="M2228.42 -15.5748C2169.69 -106.858 2081.39 -225.496 1979.1 -287.065C1935.48 -313.319 1891.69 -328.421 1845.56 -331.692C1820.03 -333.472 1793.3 -331.392 1765.31 -325.091C1721.29 -315.169 1685.25 -296.626 1654.72 -272.093C1599.94 -228.176 1561.58 -162.947 1529.86 -102.558C1507.65 -60.2715 1490.42 -22.7559 1479.79 15.3598C1471.52 45.0241 1462.42 75.9088 1447.85 104.433C1433.86 131.807 1412.94 155.991 1387.66 174.693C1355.01 198.857 1315.89 213.919 1274.79 218.68C1208.61 226.341 1140.43 209.418 1078.43 177.004C988.39 130.087 912.5 66.1372 828.93 76.7188C823.48 77.4089 818.14 78.6491 813.09 80.2494C797.73 85.1201 783.54 93.0013 773.66 105.093C747.01 137.688 759.52 211.029 803.13 213.899C811.01 214.419 817.93 213.329 823.79 210.529C855.22 196.607 860.35 146.479 824.81 121.336C793.54 99.2223 739.8 92.2412 710.51 128.087C699.73 141.258 692.95 157.021 688.72 174.763C652.53 326.746 747.04 611.758 157.62 593.645" stroke="url(#paint4_linear_806_227)" stroke-width="0.5658" stroke-miterlimit="10"/>
<path d="M2227.49 -22.7758C2167.5 -112.809 2077 -229.826 1974.46 -287.125C1930.68 -311.589 1887.69 -324.22 1842.64 -325.611C1817.72 -326.341 1791.56 -323.34 1764.1 -316.369C1721 -305.438 1685.36 -286.385 1654.87 -261.721C1600.34 -217.755 1560.48 -153.315 1527.45 -96.1567C1504.32 -56.1208 1486.72 -22.6858 1478.08 12.6595C1471.26 40.5436 1463.78 70.608 1450.53 99.0022C1437.81 126.276 1417.81 150.87 1393.23 170.063C1361.43 194.896 1322.98 210.749 1282.33 216.37C1216.68 225.461 1148.25 209.859 1085.87 177.324C993.97 129.607 917.62 71.4482 838.03 84.4401C832.84 85.2902 827.83 86.7004 823.14 88.4407C808.97 93.7015 796.09 101.483 787.15 112.854C762.95 143.629 775.77 208.238 814.62 212.539C821.9 213.349 828.31 211.689 833.63 208.859C862.71 194.846 866.06 147.059 830.31 123.736C799.03 103.333 746.21 97.572 716.91 133.527C706.17 146.689 699.28 162.382 694.85 180.014C657.01 331.017 729.29 609.028 158.49 577.233" stroke="url(#paint5_linear_806_227)" stroke-width="0.5658" stroke-miterlimit="10"/>
<path d="M2226.55 -29.9768C2165.3 -118.77 2072.59 -234.147 1969.81 -287.195C1925.87 -309.868 1883.67 -320.02 1839.72 -319.53C1815.4 -319.21 1789.83 -315.289 1762.88 -307.658C1720.69 -295.716 1685.47 -276.153 1655 -251.36C1600.72 -207.343 1559.36 -143.694 1525.02 -89.7557C1500.97 -51.9801 1483.02 -22.6357 1476.35 9.94911C1471 36.053 1465.11 65.2973 1453.19 93.5514C1441.73 120.725 1422.66 145.729 1398.77 165.412C1367.83 190.916 1330.03 207.548 1289.83 214.039C1224.71 224.551 1156.04 210.279 1093.26 177.634C999.51 129.107 922.64 76.7589 847.08 92.1412C842.15 93.1414 837.46 94.7316 833.15 96.6118C820.16 102.273 808.6 109.934 800.6 120.585C778.85 149.53 791.7 207.528 826.08 211.149C832.8 211.859 838.66 210.019 843.43 207.158C870.17 193.056 871.75 147.599 835.78 126.116C804.5 107.423 752.6 102.883 723.28 138.958C712.57 152.11 705.58 167.732 700.95 185.255C661.46 335.277 711.52 606.287 159.32 560.811" stroke="url(#paint6_linear_806_227)" stroke-width="0.5658" stroke-miterlimit="10"/>
<path d="M2225.62 -37.1779C2163.11 -124.721 2068.19 -238.468 1965.16 -287.255C1921.06 -308.138 1879.65 -315.819 1836.8 -313.439C1813.08 -312.069 1788.09 -307.228 1761.66 -298.937C1720.39 -285.985 1685.58 -265.922 1655.14 -240.988C1601.11 -196.912 1558.25 -134.052 1522.59 -83.3448C1497.62 -47.8295 1479.35 -22.6058 1474.62 7.2586C1470.77 31.5622 1466.44 60.0064 1455.85 88.1306C1445.65 115.205 1427.51 140.618 1404.32 160.791C1374.23 186.965 1337.09 204.388 1297.35 211.739C1232.76 223.691 1163.84 210.729 1100.68 177.964C1005.08 128.627 927.64 82.0997 856.15 99.8723C851.48 101.032 847.1 102.793 843.18 104.803C831.35 110.864 821.13 118.405 814.07 128.337C794.78 155.451 807.54 206.718 837.56 209.789C843.72 210.419 849.03 208.378 853.26 205.488C877.66 191.296 877.48 148.179 841.27 128.517C810 111.544 759 108.214 729.66 144.409C718.99 157.551 711.88 173.103 707.06 190.516C665.92 339.558 693.75 603.567 160.17 544.408" stroke="url(#paint7_linear_806_227)" stroke-width="0.5658" stroke-miterlimit="10"/>
<path d="M2224.68 -44.369C2160.92 -130.662 2063.76 -242.778 1960.51 -287.315C1916.24 -306.408 1875.63 -311.619 1833.88 -307.358C1810.76 -304.938 1786.36 -299.177 1760.44 -290.215C1720.09 -276.263 1685.68 -255.68 1655.27 -230.617C1601.49 -186.49 1557.14 -124.421 1520.16 -76.9338C1494.27 -43.6689 1475.69 -22.6058 1472.89 4.55825C1470.57 27.0416 1467.78 54.7057 1458.51 82.6898C1449.58 109.674 1432.35 135.498 1409.87 156.151C1380.64 183.005 1344.16 201.217 1304.87 209.419C1240.8 222.8 1171.65 211.159 1108.09 178.274C1010.63 128.136 932.56 87.4505 865.22 107.584C860.8 108.904 856.74 110.844 853.2 112.984C842.51 119.455 833.66 126.876 827.53 136.078C810.7 161.361 823.22 211.099 849.03 208.408C854.63 207.828 859.39 206.718 863.07 203.798C885.13 189.516 883.22 148.73 846.75 130.897C815.51 115.625 765.39 113.514 736.04 149.83C725.4 162.962 718.19 178.444 713.17 195.746C670.38 343.818 675.98 600.816 161.02 527.976" stroke="url(#paint8_linear_806_227)" stroke-width="0.5658" stroke-miterlimit="10"/>
<path d="M2223.75 -51.57C2158.73 -136.623 2059.35 -247.089 1955.86 -287.375C1911.42 -304.677 1871.62 -307.418 1830.95 -301.267C1808.44 -297.796 1784.61 -291.125 1759.21 -281.494C1719.78 -266.542 1685.78 -245.439 1655.4 -220.245C1601.87 -176.068 1556.02 -114.789 1517.72 -70.5228C1490.91 -39.5183 1472.06 -22.6758 1471.15 1.85788C1470.39 22.4909 1469.1 49.4049 1461.16 77.2591C1453.49 104.143 1437.19 130.377 1415.41 151.52C1387.04 179.044 1351.21 198.047 1312.38 207.108C1248.84 221.941 1179.44 211.599 1115.5 178.604C1016.19 127.657 937.42 92.8714 874.29 115.305C870.11 116.785 866.38 118.895 863.23 121.176C853.67 128.067 846.19 135.348 841 143.839C826.64 167.302 838.86 211.049 860.51 207.048C865.51 206.128 869.76 205.078 872.9 202.128C892.61 187.755 888.99 149.29 852.24 133.297C821.05 119.725 771.8 118.845 742.42 155.281C731.82 168.403 724.5 183.815 719.28 201.017C674.84 348.109 658.21 598.096 161.87 511.573" stroke="url(#paint9_linear_806_227)" stroke-width="0.5658" stroke-miterlimit="10"/>
<path d="M2222.81 -58.7713C2156.53 -142.574 2054.91 -251.4 1951.21 -287.445C1906.6 -302.947 1867.6 -303.217 1828.03 -295.186C1806.12 -290.666 1782.88 -283.084 1757.99 -272.773C1719.48 -256.831 1685.89 -235.197 1655.53 -209.874C1602.25 -165.647 1554.9 -105.158 1515.29 -64.112C1487.56 -35.3678 1468.45 -22.8259 1469.42 -0.832637C1470.25 17.8901 1470.44 44.124 1463.82 71.8281C1457.42 98.6221 1442.05 125.266 1420.95 146.889C1393.43 175.093 1358.26 194.886 1319.89 204.798C1256.87 221.07 1187.24 212.049 1122.9 178.924C1021.74 127.166 942.21 98.352 883.35 123.026C879.41 124.676 876 126.966 873.24 129.357C864.79 136.688 858.72 143.809 854.45 151.58C842.57 173.213 855.7 214.549 871.97 205.668C876.49 205.298 880.11 203.428 882.71 200.437C900.08 185.975 894.76 149.83 857.72 135.688C826.6 123.806 778.19 124.166 748.8 160.711C738.24 173.823 730.8 189.155 725.39 206.258C679.3 352.37 640.45 595.356 162.71 495.151" stroke="url(#paint10_linear_806_227)" stroke-width="0.5658" stroke-miterlimit="10"/>
<path d="M2221.88 -65.9723C2154.34 -148.524 2050.48 -255.7 1946.57 -287.505C1901.79 -301.207 1863.59 -299.017 1825.12 -289.105C1803.81 -283.534 1781.15 -275.043 1756.79 -264.062C1719.2 -247.129 1686.01 -224.966 1655.69 -199.512C1602.67 -155.226 1553.81 -95.5366 1512.88 -57.711C1484.23 -31.2171 1464.87 -23.106 1467.71 -3.54311C1470.14 13.1994 1471.8 38.8132 1466.5 66.3873C1461.37 93.0912 1446.92 120.145 1426.52 142.248C1399.86 171.133 1365.34 191.726 1327.42 202.477C1264.93 220.21 1195.05 212.479 1130.33 179.244C1027.31 126.686 946.98 103.913 892.44 130.737C888.73 132.557 885.65 135.027 883.29 137.538C875.94 145.339 871.28 152.27 867.94 159.321C858.56 179.114 871.76 214.949 883.47 204.298C887.43 203.748 890.5 201.777 892.55 198.757C907.58 184.205 900.58 150.36 863.23 138.078C832.19 127.866 784.61 129.477 755.2 166.152C744.67 179.254 737.13 194.516 731.52 211.509C683.78 356.64 622.7 592.625 163.58 478.738" stroke="url(#paint11_linear_806_227)" stroke-width="0.5658" stroke-miterlimit="10"/>
<path d="M2220.94 -73.1632C2152.14 -154.475 2046.04 -259.991 1941.91 -287.565C1896.95 -299.467 1859.56 -294.816 1822.19 -283.014C1801.48 -276.393 1779.41 -266.992 1755.56 -255.33C1718.89 -237.408 1686.11 -214.724 1655.81 -189.13C1603.04 -144.794 1552.68 -85.8851 1510.44 -51.2899C1480.87 -27.0564 1461.23 -23.5258 1465.97 -6.22322C1469.99 8.42895 1473.13 33.5426 1469.15 60.9667C1465.29 87.5806 1451.76 115.045 1432.06 137.628C1406.26 167.202 1372.39 188.586 1334.93 200.177C1272.96 219.37 1202.85 212.929 1137.73 179.574C1032.86 126.206 951.66 109.604 901.5 138.468C898.02 140.469 895.27 143.129 893.31 145.739C887.05 154.05 883.82 160.742 881.4 167.092C874.54 185.045 887.8 215.37 894.94 202.948C898.34 202.218 900.86 200.147 902.37 197.087C915.05 182.445 906.4 150.89 868.71 140.478C837.76 131.927 791.01 134.808 761.58 171.603C751.09 184.695 743.44 199.887 737.63 216.77C688.24 360.921 604.93 589.905 164.43 462.336" stroke="url(#paint12_linear_806_227)" stroke-width="0.5658" stroke-miterlimit="10"/>
<path d="M2220.01 -80.3644C2149.95 -160.426 2041.6 -264.282 1937.27 -287.625C1892.13 -297.727 1855.53 -290.686 1819.27 -276.923C1799.15 -269.292 1777.67 -258.951 1754.34 -246.609C1718.59 -227.706 1686.21 -204.483 1655.94 -178.759C1603.42 -134.372 1551.57 -76.2538 1508 -44.8891C1477.51 -22.9159 1454.5 -22.4557 1464.23 -8.93374C1467.05 4.37823 1474.46 28.2417 1471.79 55.5257C1469.2 82.0497 1456.59 109.924 1437.59 132.987C1412.65 163.242 1379.43 185.425 1342.43 197.857C1280.98 218.51 1210.64 213.359 1145.13 179.894C1038.41 125.726 956.32 115.425 910.56 146.189C907.3 148.38 904.89 151.23 903.32 153.93C898.16 162.782 896.359 169.203 894.849 174.843C890.529 190.926 903.82 215.78 906.4 201.577C909.25 200.667 911.21 198.497 912.17 195.406C922.51 180.684 912.22 151.39 874.18 142.869C843.34 135.958 797.39 140.128 767.95 177.034C757.49 190.116 749.73 205.238 743.73 222.01C692.69 365.182 587.16 587.164 165.27 445.913" stroke="url(#paint13_linear_806_227)" stroke-width="0.5658" stroke-miterlimit="10"/>
<path d="M2219.07 -87.5653C2147.75 -166.377 2037.15 -268.562 1932.62 -287.695C1887.3 -295.986 1851.5 -286.495 1816.35 -270.852C1796.83 -262.171 1775.94 -250.93 1753.12 -237.908C1718.29 -218.025 1686.32 -194.261 1656.08 -168.407C1603.81 -123.971 1550.46 -66.6422 1505.58 -38.4981C1474.17 -18.7752 1450.59 -22.4157 1462.51 -11.6541C1466.62 -0.142443 1475.82 22.9311 1474.46 50.0651C1473.14 76.499 1461.46 104.793 1443.14 128.327C1419.07 159.271 1386.5 182.245 1349.95 195.517C1289.03 217.64 1218.44 213.769 1152.54 180.184C1043.96 125.206 960.99 121.386 919.62 153.87C916.58 156.261 914.53 159.301 913.34 162.072C909.3 171.503 908.92 177.584 908.31 182.545C906.56 196.707 919.86 216.13 917.87 200.157C920.16 199.067 921.56 196.797 921.99 193.676C929.99 178.864 918.06 151.82 879.66 145.219C848.94 139.938 803.79 145.409 774.32 182.435C763.9 195.497 756.03 210.559 749.83 227.221C697.14 369.412 569.38 584.384 166.1 429.461" stroke="url(#paint14_linear_806_227)" stroke-width="0.5658" stroke-miterlimit="10"/>
<path d="M2218.14 -94.7665C2145.56 -172.338 2032.7 -272.833 1927.97 -287.755C1882.47 -294.236 1847.48 -282.284 1813.43 -264.762C1794.51 -255.03 1774.2 -242.888 1751.9 -229.176C1717.99 -208.323 1686.43 -184.01 1656.21 -158.026C1604.19 -113.529 1549.34 -57.0008 1503.15 -32.0771C1470.82 -14.6145 1446.67 -22.3457 1460.79 -14.3345C1466.19 -4.62307 1477.17 17.6702 1477.13 44.6542C1477.09 71.0081 1466.32 99.7024 1448.7 123.716C1425.49 155.341 1393.57 179.124 1357.48 193.226C1297.09 216.83 1226.26 214.229 1159.97 180.534C1049.54 124.746 965.71 127.566 928.71 161.621C925.89 164.212 924.2 167.442 923.38 170.293C920.5 180.324 921.5 186.015 921.79 190.326C922.6 202.498 935.91 216.57 929.36 198.817C931.09 197.547 931.94 195.176 931.82 192.026C937.48 177.124 923.93 152.3 885.16 147.639C854.56 143.959 810.2 150.75 780.72 187.895C770.33 200.947 762.36 215.94 755.96 232.502C701.62 373.713 551.63 581.684 166.97 413.079" stroke="url(#paint15_linear_806_227)" stroke-width="0.5658" stroke-miterlimit="10"/>
<path d="M2217.2 -101.958C2143.37 -178.279 2028.24 -277.084 1923.32 -287.815C1877.64 -292.486 1843.46 -278.084 1810.51 -258.671C1792.19 -247.879 1772.46 -234.847 1750.68 -220.455C1717.68 -198.632 1686.53 -173.768 1656.35 -147.654C1604.58 -103.108 1548.23 -47.3595 1500.72 -25.6663C1467.47 -10.4641 1442.75 -22.2958 1459.06 -17.035C1465.75 -9.12387 1478.52 12.3793 1479.79 39.2133C1481.03 65.4772 1471.18 94.5816 1454.25 119.075C1431.91 151.39 1400.63 175.974 1364.99 190.906C1305.13 215.989 1234.05 214.659 1167.38 180.844C1055.1 124.256 970.48 133.877 937.78 169.323C935.19 172.133 933.87 175.544 933.41 178.464C931.74 189.106 934.05 194.366 935.26 198.067C938.56 208.138 951.95 216.96 940.84 197.447C942.01 195.997 942.31 193.526 941.65 190.346C944.96 175.354 929.8 152.73 890.66 150.03C860.19 147.929 816.61 156.071 787.11 193.336C776.76 206.378 768.67 221.3 762.08 237.753C706.09 377.983 533.87 578.953 167.83 396.666" stroke="url(#paint16_linear_806_227)" stroke-width="0.5658" stroke-miterlimit="10"/>
<path d="M2216.27 -109.159C2141.18 -184.23 2023.79 -281.344 1918.68 -287.875C1872.82 -290.726 1839.45 -273.873 1807.59 -252.59C1789.87 -240.748 1770.72 -226.826 1749.47 -211.734C1717.38 -188.95 1686.65 -163.537 1656.49 -137.283C1604.97 -92.6863 1547.12 -37.7281 1498.3 -19.2554C1464.13 -6.31347 1438.84 -22.2358 1457.34 -19.7354C1465.32 -13.6245 1479.89 7.08854 1482.46 33.7825C1484.98 59.9564 1476.05 89.4808 1459.81 114.444C1438.33 147.449 1407.71 172.843 1372.52 188.595C1313.19 215.169 1241.87 215.099 1174.8 181.164C1060.66 123.766 975.36 140.358 946.86 177.044C944.49 180.084 943.56 183.665 943.45 186.645C943.04 197.897 946.54 202.698 948.74 205.808C954.35 213.739 968.01 217.35 952.32 196.067C952.93 194.436 952.68 191.866 951.47 188.655C952.44 173.573 935.66 153.12 896.14 152.41C865.8 151.87 823.01 161.381 793.49 198.767C783.17 211.799 774.98 226.651 768.19 242.993C710.55 382.244 516.11 576.213 168.68 380.244" stroke="url(#paint17_linear_806_227)" stroke-width="0.5658" stroke-miterlimit="10"/>
<path d="M2215.33 -116.359C2138.98 -190.19 2019.34 -285.585 1914.02 -287.945C1867.97 -288.975 1835.42 -269.672 1804.66 -246.509C1787.54 -233.617 1768.97 -218.805 1748.24 -203.022C1717.06 -179.279 1686.74 -153.305 1656.62 -126.921C1605.35 -82.2745 1546.01 -28.1065 1495.86 -12.8542C1460.76 -2.16262 1434.91 -22.1855 1455.6 -22.4356C1464.87 -18.1249 1481.23 1.79791 1485.11 28.3418C1488.92 54.4357 1480.9 84.3702 1465.34 109.804C1444.73 143.499 1414.76 169.703 1380.02 186.275C1321.22 214.339 1249.65 215.54 1182.2 181.485C1066.21 123.276 980.36 146.969 955.92 184.765C953.8 188.046 953.23 191.776 953.46 194.837C954.34 206.678 958.95 211.089 962.19 213.559C969.95 219.47 984.03 217.76 963.78 194.697C963.84 192.876 963.03 190.216 961.28 186.975C959.91 171.803 941.51 153.49 901.62 154.811C871.41 155.811 829.4 166.702 799.86 204.208C789.58 217.23 781.28 232.012 774.29 248.244C715 386.515 498.33 573.483 169.51 363.822" stroke="url(#paint18_linear_806_227)" stroke-width="0.5658" stroke-miterlimit="10"/>
<path d="M2214.39 -123.561C2136.78 -196.142 2014.88 -289.825 1909.37 -288.005C1863.14 -287.205 1831.4 -265.472 1801.74 -240.418C1785.22 -226.476 1767.23 -210.784 1747.02 -194.291C1716.75 -169.598 1686.85 -143.054 1656.75 -116.54C1605.73 -71.8432 1544.89 -18.4652 1493.43 -6.43341C1457.41 1.99784 1430.99 -22.1158 1453.87 -25.1262C1464.43 -22.6159 1482.59 -3.483 1487.77 22.9209C1492.87 48.9248 1485.76 79.2693 1470.89 105.183C1451.16 139.568 1421.83 166.582 1387.54 183.975C1329.28 213.539 1257.46 215.989 1189.61 181.814C1071.77 122.806 985.53 153.67 964.99 192.486C963.12 196.016 962.93 199.887 963.49 203.028C965.7 215.429 971.36 219.55 975.66 221.31C985.56 225.361 1000.08 218.16 975.26 193.326C974.76 191.326 973.4 188.565 971.1 185.295C967.38 170.033 947.36 153.83 907.1 157.201C877.02 159.721 835.8 172.023 806.24 209.649C795.99 222.66 787.58 237.373 780.4 253.495C719.46 390.795 480.56 570.742 170.36 347.409" stroke="url(#paint19_linear_806_227)" stroke-width="0.5658" stroke-miterlimit="10"/>
<path d="M2213.46 -130.752C2134.59 -202.082 2010.44 -294.046 1904.72 -288.065C1858.31 -285.435 1827.43 -261.201 1798.82 -234.337C1782.94 -219.305 1765.48 -202.762 1745.8 -185.58C1716.43 -159.926 1686.96 -132.822 1656.89 -106.178C1606.12 -61.4216 1543.78 -8.84382 1491 -0.032515C1454.06 6.1384 1426.95 -33.0073 1452.14 -27.8265C1463.76 -25.4362 1483.96 -8.7738 1490.43 17.4801C1496.82 43.3939 1490.62 74.1585 1476.44 100.542C1457.58 135.628 1428.9 163.442 1395.06 181.654C1337.34 212.719 1265.27 216.42 1197.03 182.134C1077.33 122.316 990.88 160.391 974.06 200.207C972.46 203.988 972.63 207.978 973.51 211.219C977.06 224.151 983.79 228.061 989.12 229.071C1001.24 231.362 1016.11 218.58 986.73 191.976C985.67 189.796 983.76 186.935 980.92 183.635C974.86 168.282 953.2 154.17 912.59 159.611C882.62 163.632 842.2 177.364 812.62 215.109C802.41 228.111 793.89 242.753 786.51 258.766C723.92 395.086 462.8 568.032 171.21 331.016" stroke="url(#paint20_linear_806_227)" stroke-width="0.5658" stroke-miterlimit="10"/>
<path d="M2212.52 -137.953C2132.39 -208.043 2005.98 -298.267 1900.07 -288.125C1853.48 -283.664 1823.41 -257 1795.89 -228.246C1780.61 -212.164 1763.72 -194.741 1744.57 -176.849C1716.1 -150.245 1687.05 -122.571 1657.01 -95.7967C1606.5 -50.99 1542.65 0.807707 1488.56 6.38853C1450.7 10.3091 1422.37 -25.0461 1450.4 -30.517C1463.34 -33.0373 1485.31 -14.0545 1493.08 12.0594C1500.76 37.8832 1495.47 69.0678 1481.97 95.9218C1463.98 131.697 1435.95 160.331 1402.56 179.354C1345.39 211.929 1273.05 216.87 1204.42 182.465C1082.87 121.836 996.349 167.112 983.109 207.928C981.799 211.969 982.3 216.07 983.52 219.4C988.42 232.832 996.29 236.083 1002.57 236.813C1016.91 238.473 1027.95 223.331 998.19 190.596C996.27 188.476 994.109 185.275 990.729 181.945C982.329 166.502 959.02 154.45 918.07 161.992C888.2 167.492 848.59 182.665 819 220.53C808.82 233.522 800.19 248.094 792.62 263.997C728.38 399.337 445.03 565.281 172.06 314.584" stroke="url(#paint21_linear_806_227)" stroke-width="0.5658" stroke-miterlimit="10"/>
<path d="M2211.59 -145.154C2130.2 -213.994 2001.55 -302.477 1895.43 -288.195C1848.66 -281.894 1819.41 -252.81 1792.98 -222.165C1778.3 -205.033 1761.98 -186.73 1743.36 -168.137C1715.78 -140.593 1687.17 -112.349 1657.15 -85.4351C1606.89 -40.5785 1541.54 10.429 1486.13 12.7794C1447.35 14.4396 1418.38 -24.4762 1448.67 -33.2375C1462.8 -37.3281 1486.68 -19.3754 1495.74 6.5984C1504.72 32.3322 1500.34 63.9369 1487.52 91.261C1470.41 127.726 1443.03 157.181 1410.07 177.014C1353.45 211.109 1280.85 217.28 1211.83 182.764C1088.43 121.335 1001.98 173.733 992.18 215.629C991.18 219.92 992 224.141 993.55 227.571C999.8 241.483 1008.75 245.064 1016.04 244.544C1032.83 243.343 1045.01 223.021 1009.67 189.206C1007.25 186.895 1004.48 183.605 1000.55 180.244C989.81 164.722 964.83 154.7 923.55 164.362C893.78 171.333 854.99 187.965 825.38 225.951C815.24 238.933 806.5 253.435 798.73 269.237C732.84 403.597 427.26 562.541 172.91 298.162" stroke="url(#paint22_linear_806_227)" stroke-width="0.5658" stroke-miterlimit="10"/>
<path d="M2210.65 -152.355C2128 -219.945 1997.1 -306.688 1890.77 -288.255C1843.83 -280.114 1815.38 -248.609 1790.05 -216.084C1775.97 -197.902 1760.21 -178.719 1742.14 -159.426C1715.45 -130.932 1687.28 -102.117 1657.29 -75.0734C1607.28 -30.1668 1540.44 20.0507 1483.71 19.1805C1444.01 18.5804 1414.49 -23.9558 1446.95 -35.9376C1462.34 -41.6185 1488.05 -24.666 1498.4 1.16786C1508.67 26.8017 1505.21 58.8363 1493.07 86.6305C1476.84 123.786 1450.11 154.061 1417.59 174.704C1361.52 210.309 1288.65 217.72 1219.24 183.085C1093.98 120.846 1007.72 180.294 1001.25 223.351C1000.57 227.881 1001.7 232.212 1003.57 235.763C1011.16 250.135 1021.24 253.575 1029.5 252.305C1048.68 249.345 1061.78 222.811 1021.14 187.846C1018.22 185.325 1014.84 181.965 1010.37 178.564C997.28 162.952 970.62 154.951 929.04 166.762C899.34 175.194 861.39 193.296 831.76 231.392C821.65 244.364 812.81 258.796 804.84 274.488C737.3 407.868 409.5 559.81 173.75 281.749" stroke="url(#paint23_linear_806_227)" stroke-width="0.5658" stroke-miterlimit="10"/>
<path d="M2209.72 -159.546C2125.82 -225.896 1992.68 -310.878 1886.13 -288.315C1839.02 -278.333 1811.37 -244.398 1787.14 -209.993C1773.67 -190.76 1758.46 -170.697 1740.93 -150.694C1715.12 -121.26 1687.39 -91.8658 1657.43 -64.6918C1607.67 -19.7251 1539.33 29.6921 1481.29 25.6015C1440.67 22.7511 1410.64 -23.4957 1445.23 -38.628C1461.91 -45.919 1489.43 -29.9567 1501.07 -4.26288C1512.64 21.2809 1510.09 53.7357 1498.63 81.9999C1483.28 119.855 1457.2 150.94 1425.12 172.393C1369.61 209.519 1296.47 218.16 1226.67 183.415C1099.56 120.376 1013.57 186.735 1010.34 231.072C1009.99 235.833 1011.41 240.283 1013.62 243.944C1022.55 258.756 1033.78 262.067 1042.99 260.046C1064.58 255.316 1078.41 222.661 1032.64 186.475C1029.2 183.755 1025.23 180.314 1020.21 176.884C1004.78 161.182 976.42 155.191 934.54 169.153C904.91 179.034 867.8 198.617 838.16 236.833C828.09 249.795 819.13 264.157 810.97 279.739C741.78 412.139 391.75 557.07 174.62 265.337" stroke="url(#paint24_linear_806_227)" stroke-width="0.5658" stroke-miterlimit="10"/>
<path d="M2208.78 -166.747C2123.62 -231.847 1988.25 -315.079 1881.48 -288.375C1834.2 -276.553 1807.35 -240.198 1784.21 -203.903C1771.34 -183.62 1756.69 -162.676 1739.7 -141.973C1714.77 -111.599 1687.49 -81.6244 1657.56 -54.3203C1608.05 -9.30367 1538.21 39.3235 1478.85 32.0124C1437.31 26.9016 1406.8 -23.0957 1443.49 -41.3184C1461.48 -50.2597 1490.79 -35.2475 1503.72 -9.68372C1516.59 15.76 1514.95 48.6348 1504.16 77.3691C1489.7 115.915 1464.26 147.83 1432.62 170.083C1377.67 208.739 1304.25 218.6 1234.06 183.735C1105.1 119.885 1019.43 193.056 1019.39 238.793C1019.39 243.784 1021.08 248.354 1023.62 252.135C1033.88 267.387 1046.27 270.558 1056.43 267.797C1080.44 261.276 1094.86 222.591 1044.09 185.105C1040.12 182.175 1035.57 178.674 1030.01 175.204C1012.24 159.411 982.15 155.411 940.01 171.543C910.42 182.875 874.19 203.928 844.52 242.273C834.49 255.225 825.42 269.518 817.06 284.99C746.22 416.409 373.96 554.34 175.45 248.924" stroke="url(#paint25_linear_806_227)" stroke-width="0.5658" stroke-miterlimit="10"/>
<path d="M2207.85 -173.948C2121.43 -237.808 1983.83 -319.27 1876.83 -288.445C1829.38 -274.773 1803.34 -236.007 1781.29 -197.832C1769.02 -176.499 1754.93 -154.685 1738.48 -133.262C1714.43 -101.938 1687.59 -71.393 1657.69 -43.9589C1608.43 1.10775 1537.09 48.9548 1476.42 38.4132C1433.96 31.0422 1402.99 -22.7558 1441.76 -44.029C1461.07 -54.6306 1492.16 -40.5685 1506.38 -15.1347C1520.55 10.209 1519.82 43.5139 1509.71 72.7182C1496.13 111.954 1471.35 144.689 1440.14 167.762C1385.76 207.938 1312.06 219.03 1241.48 184.055C1110.66 119.395 1025.35 199.257 1028.46 246.504C1028.8 251.705 1030.77 256.416 1033.65 260.316C1045.23 275.998 1058.79 279.039 1069.9 275.538C1096.34 267.227 1111.25 222.561 1055.57 183.725C1051.07 180.584 1045.94 177.014 1039.83 173.513C1019.71 157.631 987.87 155.611 945.49 173.923C915.94 186.695 880.58 209.239 850.9 247.694C840.9 260.636 831.73 274.858 823.17 290.221C750.68 420.66 356.19 551.589 176.3 232.492" stroke="url(#paint26_linear_806_227)" stroke-width="0.5658" stroke-miterlimit="10"/>
<path d="M2206.91 -181.139C2119.23 -243.749 1979.41 -323.45 1872.18 -288.495C1824.56 -272.973 1799.32 -231.787 1778.37 -191.731C1766.7 -169.348 1753.16 -146.654 1737.26 -124.531C1714.08 -92.2662 1687.7 -61.1515 1657.83 -33.5775C1608.82 11.5392 1535.98 58.5962 1473.99 44.8342C1430.61 35.2128 1399.18 -22.4358 1440.03 -46.7194C1460.68 -58.9912 1493.53 -45.8593 1509.04 -20.5555C1524.51 4.67823 1524.69 38.4231 1515.26 68.0975C1502.57 108.033 1478.44 141.589 1447.65 165.462C1393.85 207.168 1319.85 219.49 1248.88 184.385C1116.21 118.925 1031.26 205.348 1037.52 254.235C1038.21 259.646 1040.45 264.497 1043.67 268.517C1056.56 284.62 1071.3 287.53 1083.36 283.309C1112.23 273.188 1127.58 222.61 1067.04 182.374C1062.01 179.034 1056.3 175.384 1049.65 171.853C1027.19 155.881 993.58 155.841 950.98 176.344C921.44 190.556 886.99 214.589 857.28 253.165C847.32 266.097 838.03 280.249 829.28 295.501C755.14 424.96 338.43 548.889 177.14 216.1" stroke="url(#paint27_linear_806_227)" stroke-width="0.5658" stroke-miterlimit="10"/>
<path d="M2205.98 -188.34C2117.04 -249.699 1975.01 -327.631 1867.53 -288.565C1819.75 -271.192 1795.3 -227.596 1775.45 -185.65C1764.39 -162.216 1751.39 -138.643 1736.04 -115.81C1713.72 -82.6046 1687.81 -50.9098 1657.96 -23.2057C1609.2 21.971 1534.87 68.2278 1471.56 51.2453C1427.26 39.3635 1395.38 -22.1556 1438.31 -49.4097C1460.3 -63.3717 1494.91 -51.1599 1511.71 -25.9862C1528.48 -0.852433 1529.63 33.3326 1520.82 63.467C1509.09 104.113 1485.54 138.478 1455.18 163.152C1401.96 206.388 1327.67 219.93 1256.31 184.705C1121.79 118.435 1037.2 211.339 1046.61 261.956C1047.65 267.557 1050.15 272.558 1053.71 276.699C1067.9 293.221 1083.84 296.001 1096.84 291.051C1128.14 279.129 1143.87 222.661 1078.53 180.994C1072.96 177.444 1066.68 173.723 1059.48 170.163C1034.68 154.101 999.28 156.041 956.48 178.724C926.95 194.377 893.4 219.89 863.68 258.586C853.75 271.498 844.36 285.59 835.41 300.742C759.62 429.221 320.68 546.149 178.01 199.677" stroke="url(#paint28_linear_806_227)" stroke-width="0.5658" stroke-miterlimit="10"/>
<path d="M2205.04 -195.541C2114.84 -255.66 1970.67 -331.662 1862.88 -288.625C1814.97 -269.332 1791.28 -223.396 1772.52 -179.569C1762.06 -155.085 1749.6 -130.632 1734.82 -107.098C1713.36 -72.9432 1687.91 -40.6785 1658.1 -12.8444C1609.59 32.3823 1533.76 77.849 1469.13 57.6461C1423.91 43.504 1391.57 -21.9157 1436.58 -52.1202C1459.92 -67.7825 1496.32 -56.5008 1514.37 -31.4271C1532.47 -6.43337 1534.49 28.2118 1526.36 58.8263C1515.5 100.152 1492.63 135.358 1462.69 160.831C1410.05 205.608 1335.47 220.36 1263.71 185.025C1127.33 117.945 1043.08 217.24 1055.67 269.667C1057.06 275.458 1059.83 280.619 1063.73 284.88C1079.22 301.822 1096.36 304.503 1110.3 298.792C1144.05 285.11 1160.11 222.74 1090 179.624C1083.89 175.864 1077.04 172.073 1069.3 168.482C1042.15 152.33 1004.95 156.241 961.96 181.114C932.42 198.207 899.79 225.211 870.06 264.027C860.17 276.928 850.67 290.941 841.52 305.993C764.08 433.492 302.91 543.408 178.86 183.265" stroke="url(#paint29_linear_806_227)" stroke-width="0.5658" stroke-miterlimit="10"/>
<path d="M2204.11 -202.742C2112.65 -261.611 1966.25 -335.922 1858.24 -288.695C1810.16 -267.592 1787.28 -219.205 1769.61 -173.488C1759.75 -147.954 1747.8 -122.641 1733.61 -98.387C1712.97 -63.3118 1688.03 -30.447 1658.24 -2.48281C1609.98 42.7939 1532.65 87.4805 1466.71 64.0371C1420.57 47.6346 1387.78 -21.7056 1434.86 -54.8405C1459.54 -72.2131 1497.68 -61.8216 1517.04 -36.8879C1536.42 -11.9842 1539.36 23.071 1531.92 54.1656C1521.93 96.1718 1499.77 132.247 1470.22 158.491C1418.22 204.858 1343.28 220.77 1271.14 185.315C1132.91 117.435 1048.97 223.041 1064.76 277.359C1066.5 283.33 1069.53 288.65 1073.77 293.041C1090.56 310.404 1108.89 312.934 1123.78 306.513C1159.95 290.981 1176.35 222.831 1101.48 178.224C1094.83 174.263 1087.41 170.393 1079.12 166.772C1049.63 150.54 1010.6 156.421 967.45 183.475C937.88 202.008 906.2 230.502 876.44 269.438C866.58 282.329 856.97 296.272 847.63 311.214C768.54 437.742 285.15 540.648 179.71 166.822" stroke="url(#paint30_linear_806_227)" stroke-width="0.5658" stroke-miterlimit="10"/>
<path d="M2203.17 -209.934C2110.45 -267.552 1961.82 -340.173 1853.58 -288.745C1805.33 -265.822 1783.25 -214.984 1766.68 -167.387C1744.05 -102.398 1708.72 -39.6382 1658.36 7.90881C1610.36 53.2355 1531.52 97.1319 1464.26 70.468C1417.2 51.8152 1383.95 -21.4656 1433.11 -57.5109C1459.14 -76.6037 1499.01 -67.0924 1519.68 -42.2887C1540.35 -17.485 1544.19 17.9903 1537.45 49.565C1512.2 167.732 1392.1 241.353 1278.53 185.665C1123.14 109.474 1037.19 255.435 1083.78 301.252C1149.85 366.232 1235.47 225.741 1088.94 165.122C1028.18 133.957 934.48 190.946 853.74 316.495C773 442.043 267.38 537.947 180.55 150.44" stroke="url(#paint31_linear_806_227)" stroke-width="0.5658" stroke-miterlimit="10"/>
<path d="M2200.39 -215.714C2110.67 -271.472 1966.69 -336.502 1859.78 -282.464C1812.81 -258.721 1790.76 -208.593 1774.13 -161.296C1751.43 -96.7566 1716.28 -34.4374 1666.41 12.9896C1618.74 58.3464 1541.04 102.093 1474.3 77.1792C1427.56 59.7666 1394.07 -10.7138 1440.19 -45.4289C1450.65 -53.3101 1463.56 -56.1206 1476.41 -54.8604C1493.54 -53.2101 1510.53 -44.3588 1521.43 -30.6968C1540.64 -6.76322 1543.4 27.4618 1536.09 57.9863C1508.74 172.093 1389.68 244.354 1276.89 191.446C1124.1 119.775 1038.77 262.167 1082.34 308.373C1143.97 373.743 1225.78 238.253 1081.86 180.475C1020.68 151.32 929.04 208.128 846.55 328.506C762.41 451.274 263.74 538.867 179.38 155.871" stroke="url(#paint32_linear_806_227)" stroke-width="0.5658" stroke-miterlimit="10"/>
<path d="M2197.61 -221.485C2110.88 -275.393 1971.58 -332.872 1865.98 -276.163C1820.3 -251.63 1798.28 -202.172 1781.57 -155.176C1758.8 -91.0861 1723.83 -29.1969 1674.44 18.0901C1627.11 63.4668 1550.53 107.063 1484.31 83.8999C1437.9 67.7275 1404.17 0.0475309 1447.25 -33.3274C1457 -40.9085 1469.12 -43.589 1481.16 -42.3688C1497.24 -40.7786 1513.12 -32.2273 1523.17 -19.0853C1540.86 4.03811 1542.6 36.933 1534.71 66.4273C1505.27 176.454 1387.28 247.374 1275.24 197.247C1125.11 130.077 1040.3 268.857 1080.89 315.514C1138.04 381.204 1216.08 250.775 1074.77 195.857C1013.17 168.703 923.43 225.341 839.34 340.538C751.68 460.626 260.09 539.807 178.18 161.331" stroke="url(#paint33_linear_806_227)" stroke-width="0.5658" stroke-miterlimit="10"/>
<path d="M2194.84 -227.266C2111.1 -279.314 1976.51 -329.301 1872.19 -269.882C1827.79 -244.588 1805.81 -195.771 1789.03 -149.074C1766.18 -85.4349 1731.4 -23.9758 1682.49 23.1712C1635.5 68.5779 1560.05 112.024 1494.34 90.6011C1448.25 75.6688 1414.28 10.7893 1454.32 -21.2455C1463.36 -28.5165 1474.68 -31.0769 1485.92 -29.8868C1500.95 -28.3465 1515.75 -20.1153 1524.92 -7.49342C1541.12 14.7899 1541.82 46.3845 1533.35 74.8487C1501.83 180.784 1384.94 250.385 1273.6 203.028C1126.17 140.328 1041.79 275.458 1079.46 322.645C1132.09 388.575 1206.41 263.297 1067.7 211.219C1005.67 186.075 917.67 242.524 832.16 352.56C740.85 470.057 256.46 540.728 177.01 166.772" stroke="url(#paint34_linear_806_227)" stroke-width="0.5658" stroke-miterlimit="10"/>
<path d="M2192.06 -233.047C2111.31 -283.234 1981.44 -325.79 1878.39 -263.591C1835.27 -237.567 1813.32 -189.36 1796.48 -142.973C1773.56 -79.784 1738.96 -18.765 1690.53 28.2619C1643.88 73.6887 1569.55 116.995 1504.36 97.3122C1458.6 83.6202 1424.38 21.5409 1461.39 -9.15364C1469.72 -16.1247 1480.24 -18.565 1490.68 -17.4049C1504.67 -15.9246 1518.37 -8.00347 1526.67 4.09832C1541.38 25.5415 1541.04 55.826 1531.98 83.2701C1498.4 185.085 1382.63 253.385 1271.95 208.809C1127.28 150.54 1043.22 281.979 1078.01 329.766C1126.11 395.836 1196.71 275.809 1060.61 226.581C998.159 203.448 911.72 259.686 824.95 364.572C729.85 479.549 252.81 541.648 175.81 172.203" stroke="url(#paint35_linear_806_227)" stroke-width="0.5658" stroke-miterlimit="10"/>
<path d="M2189.28 -238.818C2111.52 -287.145 1986.38 -322.32 1884.59 -257.3C1842.75 -230.576 1820.84 -182.959 1803.93 -136.863C1780.94 -74.1332 1746.51 -13.5343 1698.58 33.3526C1652.27 78.7994 1579.07 121.966 1514.4 104.023C1468.96 91.5713 1434.58 32.3826 1468.47 2.92821C1476.11 -3.71277 1485.82 -6.05309 1495.45 -4.92293C1508.39 -3.50272 1521 4.0984 1528.44 15.7001C1541.65 36.3032 1540.28 65.2775 1530.64 91.7014C1495.02 189.376 1380.39 256.386 1270.34 214.59C1128.48 160.722 1044.66 288.41 1076.61 336.888C1120.17 402.987 1187.06 288.32 1053.57 241.944C990.7 220.81 905.64 276.799 817.8 376.593C718.76 489.11 249.21 542.578 174.67 177.654" stroke="url(#paint36_linear_806_227)" stroke-width="0.5658" stroke-miterlimit="10"/>
<path d="M2186.5 -244.599C2111.73 -291.066 1991.34 -318.92 1890.79 -251.01C1850.23 -223.616 1828.35 -176.549 1811.37 -130.752C1788.31 -68.4726 1754.06 -8.30368 1706.61 38.4432C1660.63 83.92 1588.56 126.936 1524.41 110.734C1479.3 99.5222 1444.69 43.1539 1475.53 15.0197C1482.47 8.68879 1491.37 6.4585 1500.19 7.55866C1512.09 8.91887 1523.6 16.2099 1530.17 27.2916C1541.88 47.0445 1539.49 74.7085 1529.26 100.122C1491.62 193.636 1378.16 259.376 1268.68 220.37C1129.68 170.853 1046.03 294.751 1075.15 344.008C1114.18 410.018 1177.36 300.832 1046.48 257.296C983.19 238.173 899.33 293.861 810.59 388.605C707.46 498.711 245.55 543.498 173.48 183.085" stroke="url(#paint37_linear_806_227)" stroke-width="0.5658" stroke-miterlimit="10"/>
<path d="M2183.72 -250.369C2111.94 -294.976 1996.29 -315.569 1897 -244.719C1857.71 -216.684 1835.88 -170.138 1818.83 -124.651C1795.69 -62.8218 1761.63 -3.09289 1714.66 43.524C1669.02 89.0207 1598.11 131.757 1534.44 117.445C1489.67 107.373 1454.83 53.9255 1482.6 27.1115C1488.83 21.0907 1496.93 18.9804 1504.95 20.0506C1515.8 21.3508 1526.21 28.3218 1531.92 38.9033C1542.12 57.8061 1538.72 84.1501 1527.89 108.564C1488.26 197.897 1375.99 262.376 1267.04 226.171C1130.96 180.954 1047.39 301.002 1073.71 351.15C1108.24 416.939 1167.67 313.364 1039.4 272.678C975.69 255.565 892.86 310.884 803.4 400.637C696.03 508.363 241.92 544.438 172.3 188.535" stroke="url(#paint38_linear_806_227)" stroke-width="0.5658" stroke-miterlimit="10"/>
<path d="M2180.94 -256.15C2112.15 -298.897 2001.24 -312.279 1903.2 -238.428C1865.17 -209.783 1843.39 -163.727 1826.28 -118.54C1803.07 -57.1608 1769.19 2.13805 1722.71 48.6249C1677.41 94.1517 1607.62 136.728 1544.47 124.166C1500.03 115.325 1464.97 64.7074 1489.68 39.2036C1495.21 33.4928 1502.5 31.5024 1509.72 32.5326C1519.53 33.7728 1528.83 40.4237 1533.68 50.4952C1542.37 68.5479 1537.98 93.5616 1526.54 116.985C1484.96 202.118 1373.88 265.337 1265.41 231.952C1132.3 190.986 1048.77 307.133 1072.29 358.281C1102.38 423.72 1158 325.886 1032.34 288.04C968.21 272.928 886.23 327.816 796.22 412.659C684.45 518.004 238.29 545.359 171.13 193.986" stroke="url(#paint39_linear_806_227)" stroke-width="0.5658" stroke-miterlimit="10"/>
<path d="M2178.16 -261.921C2112.36 -302.817 2006.18 -309.048 1909.4 -232.137C1872.62 -202.912 1850.91 -157.326 1833.73 -112.429C1810.45 -51.5001 1776.75 7.36864 1730.75 53.7155C1685.79 99.2623 1617.13 141.679 1554.49 130.877C1510.37 123.266 1475.1 75.4788 1496.74 51.2952C1501.57 45.8944 1508.06 44.0141 1514.47 45.0243C1523.23 46.2145 1531.43 52.5353 1535.42 62.1068C1542.59 79.2993 1537.22 102.993 1525.17 125.426C1481.68 206.338 1371.8 268.297 1263.76 237.753C1133.69 200.977 1050.14 313.174 1070.84 365.422C1096.58 430.371 1148.3 338.418 1025.25 303.423C960.7 290.321 879.41 344.679 789.02 424.69C672.7 527.656 234.65 546.299 169.94 199.437" stroke="url(#paint40_linear_806_227)" stroke-width="0.5658" stroke-miterlimit="10"/>
<path d="M2175.38 -267.702C2112.57 -306.738 2011.1 -305.888 1915.6 -225.856C1880.06 -196.071 1858.43 -150.925 1841.18 -106.338C1817.83 -45.8691 1784.31 12.5695 1738.79 58.7863C1694.17 104.353 1626.63 146.619 1564.52 137.568C1520.73 131.187 1485.25 86.2304 1503.82 63.367C1507.95 58.2762 1513.63 56.516 1519.24 57.4961C1526.96 58.6263 1534.04 64.6172 1537.18 73.6886C1542.82 90.021 1536.5 112.384 1523.81 133.837C1478.45 210.519 1369.78 271.208 1262.13 243.524C1135.15 210.869 1051.57 319.085 1069.41 372.533C1090.89 436.862 1138.63 350.92 1018.18 318.765C953.21 307.673 872.45 361.411 781.83 436.692C660.8 537.237 231.01 547.209 168.77 204.858" stroke="url(#paint41_linear_806_227)" stroke-width="0.5658" stroke-miterlimit="10"/>
<path d="M2172.6 -273.473C2112.78 -310.648 2016 -302.777 1921.8 -219.555C1887.49 -189.241 1865.94 -144.504 1848.62 -100.217C1825.19 -40.1984 1791.86 17.8101 1746.82 63.8969C1702.53 109.494 1636.12 151.59 1574.53 144.299C1531.06 139.158 1495.4 97.0218 1510.87 75.4686C1514.3 70.6879 1519.17 69.0477 1523.98 69.9878C1530.65 71.058 1536.62 76.7088 1538.91 85.3001C1543.02 100.752 1535.76 121.805 1522.43 142.279C1475.25 214.729 1367.78 274.108 1260.47 249.314C1136.63 220.7 1053.03 324.916 1067.96 379.664C1085.3 443.253 1128.93 363.441 1011.09 334.137C945.7 325.056 865.32 378.073 774.63 448.724C648.74 546.788 227.37 548.149 167.58 210.309" stroke="url(#paint42_linear_806_227)" stroke-width="0.5658" stroke-miterlimit="10"/>
<path d="M2169.83 -279.254C2113 -314.569 2020.88 -299.727 1928.01 -213.274C1894.91 -182.459 1873.47 -138.103 1856.08 -94.1163C1832.58 -34.5475 1799.43 23.031 1754.88 68.9778C1710.93 114.595 1645.64 156.541 1584.57 151.01C1541.42 147.099 1505.58 107.784 1517.95 87.5606C1520.69 83.0899 1524.75 81.5596 1528.74 82.4798C1534.37 83.4899 1539.22 88.7907 1540.66 96.9019C1543.24 111.454 1535.05 131.217 1521.07 150.71C1472.13 218.92 1365.86 276.969 1258.84 255.105C1138.2 230.462 1054.59 330.657 1066.53 386.795C1079.88 449.554 1119.25 375.963 1004.02 349.509C938.21 342.428 858.08 394.626 767.44 460.746C636.53 556.26 223.73 549.079 166.4 215.76" stroke="url(#paint43_linear_806_227)" stroke-width="0.5658" stroke-miterlimit="10"/>
<path d="M2167.05 -285.025C2113.22 -318.48 2025.72 -296.736 1934.21 -206.973C1902.3 -175.678 1880.98 -131.682 1863.53 -88.0054C1839.96 -28.8867 1806.98 28.2519 1762.92 74.0686C1719.31 119.715 1655.14 161.502 1594.59 157.721C1551.77 155.041 1515.75 118.525 1525.02 99.6524C1527.07 95.4818 1530.31 94.0816 1533.5 94.9617C1538.08 95.9119 1541.82 100.853 1542.41 108.504C1543.46 122.136 1534.36 140.618 1519.7 159.141C1469.05 223.121 1363.97 279.779 1257.19 260.896C1139.8 240.133 1056.24 336.327 1065.09 393.936C1074.59 455.775 1109.57 388.495 996.94 364.882C930.71 359.811 850.7 411.058 760.25 472.778C624.18 565.631 220.09 550.009 165.22 221.21" stroke="url(#paint44_linear_806_227)" stroke-width="0.5658" stroke-miterlimit="10"/>
<path d="M2164.27 -290.806C2113.43 -322.4 2030.51 -293.806 1940.41 -200.692C1909.68 -168.938 1888.5 -125.291 1870.98 -81.9046C1847.34 -23.2359 1814.54 33.4725 1770.96 79.1593C1727.69 124.826 1664.64 166.462 1604.62 164.432C1562.12 162.992 1525.95 129.257 1532.09 111.734C1533.45 107.863 1535.87 106.593 1538.26 107.443C1541.79 108.334 1544.43 112.894 1544.16 120.095C1543.69 132.777 1533.69 150.02 1518.34 167.562C1466.05 227.321 1362.13 282.529 1255.56 266.677C1141.46 249.705 1058.02 341.938 1063.66 401.057C1069.46 461.916 1099.89 400.997 989.88 380.244C923.23 377.183 843.23 427.371 753.07 484.799C611.69 574.853 216.47 550.939 164.05 226.651" stroke="url(#paint45_linear_806_227)" stroke-width="0.5658" stroke-miterlimit="10"/>
<path d="M2161.49 -296.576C2113.64 -326.321 2035.25 -290.916 1946.61 -194.391C1917.04 -162.196 1896.02 -118.87 1878.43 -75.7837C1854.71 -17.5751 1822.1 38.7133 1779 84.26C1736.07 129.957 1674.14 171.443 1614.64 171.153C1572.46 170.953 1536.14 139.958 1539.16 123.836C1539.83 120.255 1541.43 119.115 1543.02 119.935C1545.51 120.775 1547.05 124.936 1545.91 131.697C1543.94 143.409 1533.03 159.431 1516.97 175.994C1463.1 231.552 1360.32 285.23 1253.91 272.468C1143.15 259.186 1059.93 347.529 1062.21 408.188C1064.47 468.037 1090.19 413.519 982.79 395.606C915.72 394.546 835.63 443.553 745.87 496.811C599.06 583.924 212.82 551.859 162.87 232.092" stroke="url(#paint46_linear_806_227)" stroke-width="0.5658" stroke-miterlimit="10"/>
<path d="M2158.71 -302.357C2113.85 -330.241 2039.94 -288.095 1952.81 -188.11C1924.39 -155.495 1903.53 -112.469 1885.87 -69.6827C1862.08 -11.9241 1829.65 43.9241 1787.04 89.3408C1744.44 135.058 1683.64 176.404 1624.66 177.854C1582.8 178.894 1546.32 150.59 1546.22 135.918C1546.2 132.617 1546.99 131.627 1547.77 132.417C1549.21 133.197 1549.68 136.948 1547.65 143.299C1544.23 154.03 1532.38 168.853 1515.6 184.425C1460.21 235.822 1358.55 287.85 1252.26 278.259C1144.87 268.567 1061.97 353.12 1060.77 415.319C1059.63 474.158 1080.51 426.041 975.71 410.978C908.22 411.929 827.96 459.636 738.67 508.843C586.29 592.825 209.18 552.799 161.68 237.543" stroke="url(#paint47_linear_806_227)" stroke-width="0.5658" stroke-miterlimit="10"/>
<path d="M2155.93 -308.128C2114.06 -334.152 2044.57 -285.305 1959.01 -181.809C1931.71 -148.785 1911.05 -106.048 1893.32 -63.5718C1869.46 -6.26336 1837.21 49.1548 1795.08 94.4315C1752.82 140.168 1693.14 181.364 1634.68 184.575C1593.14 186.855 1556.44 161.201 1553.29 148.009C1552.57 144.979 1552.55 144.149 1552.53 144.899C1552.93 145.619 1552.34 148.97 1549.4 154.89C1544.57 164.632 1531.75 178.284 1514.24 192.846C1457.38 240.123 1356.82 290.38 1250.63 284.03C1146.65 277.819 1064.2 358.701 1059.34 422.44C1054.93 480.279 1070.83 438.552 968.64 426.341C900.73 429.301 820.23 475.578 731.49 520.855C573.44 601.497 205.55 553.72 160.51 242.974" stroke="url(#paint48_linear_806_227)" stroke-width="0.5658" stroke-miterlimit="10"/>
<path d="M2153.15 -313.909C2114.27 -338.073 2049.13 -282.574 1965.21 -175.528C1939.02 -142.114 1918.56 -99.6572 1900.77 -57.471C1876.83 -0.612559 1844.77 54.3756 1803.12 99.5222C1761.2 145.289 1702.64 186.335 1644.7 191.286C1603.48 194.806 1566.47 171.793 1560.35 160.101C1558.9 157.341 1558.1 156.661 1557.27 157.391C1556.62 158.051 1555.01 161.011 1551.13 166.502C1544.94 175.273 1531.12 187.735 1512.85 201.277C1454.58 244.484 1355.09 292.821 1248.96 289.82C1148.41 286.98 1066.53 364.351 1057.87 429.571C1050.32 486.46 1061.11 451.074 961.53 441.703C893.2 446.664 812.41 491.41 724.27 532.876C560.44 609.948 201.89 554.64 159.3 248.424" stroke="url(#paint49_linear_806_227)" stroke-width="0.5658" stroke-miterlimit="10"/>
<path d="M2150.37 -319.68C2114.48 -341.983 2053.62 -279.884 1971.41 -169.227C1946.3 -135.432 1926.08 -93.2361 1908.22 -51.3499C1884.21 5.05842 1852.33 59.6064 1811.17 104.623C1769.59 150.41 1712.15 191.326 1654.74 198.007C1613.84 202.768 1576.46 182.455 1567.44 172.203C1565.26 169.723 1563.69 169.193 1562.05 169.883C1560.36 170.483 1557.74 173.073 1552.91 178.104C1545.38 185.945 1530.55 197.207 1511.52 209.709C1451.88 248.905 1353.43 295.161 1247.36 295.611C1150.25 296.022 1069.09 370.072 1056.48 436.702C1045.88 492.701 1051.48 463.596 954.5 457.075C885.75 464.046 804.64 507.123 717.12 544.908C547.43 618.159 198.29 555.58 158.16 253.875" stroke="url(#paint50_linear_806_227)" stroke-width="0.5658" stroke-miterlimit="10"/>
<path d="M2147.6 -325.461C2114.7 -345.904 2058.05 -277.233 1977.62 -162.946C1953.57 -128.781 1933.61 -86.8352 1915.67 -45.259C1891.59 10.6893 1859.89 64.8173 1819.21 109.694C1777.97 155.511 1721.65 196.277 1664.76 204.698C1624.18 210.709 1586.42 193.156 1574.5 184.265C1571.57 182.085 1569.24 181.685 1566.8 182.345C1564.06 182.885 1560.45 185.135 1554.65 189.686C1545.79 196.637 1529.96 206.678 1510.15 218.12C1449.17 253.365 1351.73 297.352 1245.71 301.382C1152.04 304.943 1071.74 375.853 1055.03 443.813C1041.47 498.992 1041.78 476.098 947.41 472.418C878.24 481.399 796.79 522.705 709.92 556.9C534.29 626.04 194.64 556.48 156.98 259.286" stroke="url(#paint51_linear_806_227)" stroke-width="0.5658" stroke-miterlimit="10"/>
<path d="M2144.82 -331.231C2114.91 -349.814 2062.38 -274.613 1983.82 -156.646C1960.82 -122.111 1941.12 -80.4143 1923.12 -39.1382C1898.97 16.36 1867.44 70.058 1827.25 114.805C1786.34 160.641 1731.15 201.277 1674.78 211.429C1634.53 218.68 1596.4 203.958 1581.57 196.377C1577.91 194.506 1574.8 194.216 1571.56 194.856C1567.78 195.337 1563.17 197.267 1556.4 201.307C1546.21 207.398 1529.38 216.21 1508.78 226.571C1446.47 257.936 1350.02 299.452 1244.06 307.193C1153.83 313.774 1074.52 381.774 1053.59 450.964C1037.12 505.402 1032.09 488.64 940.33 487.81C870.74 498.801 788.94 538.217 702.72 568.952C521.11 633.691 191 557.44 155.79 264.767" stroke="url(#paint52_linear_806_227)" stroke-width="0.5658" stroke-miterlimit="10"/>
<path d="M2142.04 -337.012C2115.12 -353.745 2066.64 -272.023 1990.02 -150.365C1968.04 -115.469 1948.64 -74.0234 1930.57 -33.0373C1906.34 22.0108 1875 75.2687 1835.29 119.885C1794.72 165.752 1740.65 206.248 1684.8 218.14C1644.87 226.641 1606.42 214.749 1588.63 208.469C1584.24 206.918 1580.35 206.738 1576.31 207.338C1571.48 207.768 1565.86 209.389 1558.14 212.909C1546.59 218.17 1528.79 225.741 1507.41 235.002C1443.78 262.556 1348.28 301.392 1242.42 312.974C1155.6 322.475 1077.41 387.785 1052.15 458.095C1032.82 511.893 1022.41 501.162 933.26 503.182C863.25 516.174 781.11 553.6 695.54 580.974C507.91 640.993 187.37 558.37 154.62 270.208" stroke="url(#paint53_linear_806_227)" stroke-width="0.5658" stroke-miterlimit="10"/>
<path d="M2139.26 -342.793C2115.33 -357.665 2070.81 -269.462 1996.22 -144.084C1975.25 -108.829 1956.15 -67.6224 1938.02 -26.9464C1913.72 27.6517 1882.56 80.4795 1843.34 124.956C1803.11 170.843 1750.16 211.209 1694.84 224.831C1655.23 234.582 1616.49 225.541 1595.72 220.53C1590.61 219.3 1585.94 219.23 1581.09 219.8C1575.22 220.17 1568.57 221.5 1559.91 224.481C1546.99 228.931 1528.23 235.282 1506.07 243.404C1441.11 267.217 1346.53 303.132 1240.8 318.735C1157.36 331.047 1080.41 393.886 1050.73 465.196C1028.57 518.444 1012.74 513.654 926.2 518.514C855.77 533.517 773.32 568.852 688.36 592.965C494.71 647.933 183.75 559.26 153.45 275.618" stroke="url(#paint54_linear_806_227)" stroke-width="0.5658" stroke-miterlimit="10"/>
<path d="M2136.48 -348.564C2115.54 -361.576 2074.9 -266.912 2002.42 -137.783C1982.43 -102.178 1963.67 -61.2014 1945.47 -20.8255C1921.1 33.3226 1890.12 85.7203 1851.38 130.067C1811.49 175.974 1759.67 216.21 1704.86 231.562C1665.58 242.564 1626.56 236.363 1602.78 232.642C1596.95 231.732 1591.49 231.762 1585.83 232.302C1578.91 232.612 1571.23 233.652 1561.64 236.103C1547.32 239.743 1527.63 244.884 1504.68 251.855C1438.37 271.998 1344.67 304.763 1239.14 324.546C1159.03 339.568 1083.43 400.167 1049.28 472.348C1024.3 525.145 1003.04 526.196 919.109 533.907C848.249 550.919 765.54 584.064 681.16 605.017C481.5 654.585 180.1 560.221 152.27 281.099" stroke="url(#paint55_linear_806_227)" stroke-width="0.5658" stroke-miterlimit="10"/>
<path d="M2133.7 -354.345C2115.76 -365.497 2078.89 -264.382 2008.62 -131.502C1989.6 -95.5365 1971.18 -54.8005 1952.91 -14.7245C1928.47 38.9634 1897.67 90.9311 1859.41 135.148C1819.85 181.084 1769.16 221.19 1714.87 238.263C1675.91 250.515 1636.63 247.154 1609.84 244.724C1603.3 244.134 1597.04 244.274 1590.58 244.784C1582.61 245.034 1573.89 245.794 1563.38 247.694C1547.65 250.535 1527.03 254.485 1503.31 260.276C1435.62 276.799 1342.74 306.173 1237.49 330.327C1160.64 347.959 1086.51 406.528 1047.83 479.469C1020.02 531.906 993.35 538.707 912.02 549.259C840.74 568.272 757.8 599.146 673.95 617.019C468.31 660.846 176.45 561.131 151.07 286.52" stroke="url(#paint56_linear_806_227)" stroke-width="0.5658" stroke-miterlimit="10"/>
<path d="M2130.92 -360.116C2115.97 -369.407 2082.8 -261.851 2014.82 -125.201C1996.75 -88.8756 1978.7 -48.3897 1960.36 -8.61378C1935.84 44.6241 1905.23 96.1617 1867.46 140.238C1828.24 186.195 1778.68 226.181 1724.9 244.974C1686.27 258.476 1646.72 257.956 1616.91 256.806C1609.66 256.525 1602.61 256.785 1595.34 257.256C1586.33 257.446 1576.56 257.926 1565.13 259.286C1547.98 261.326 1526.43 264.107 1501.95 268.697C1432.84 281.649 1340.71 307.403 1235.86 336.107C1162.2 356.27 1089.64 413.009 1046.4 486.59C1015.75 538.757 983.67 551.209 904.95 564.621C833.25 585.644 750.15 614.168 666.77 629.041C455.22 666.766 172.82 562.061 149.9 291.961" stroke="url(#paint57_linear_806_227)" stroke-width="0.5658" stroke-miterlimit="10"/>
<path d="M2128.14 -365.896C2116.18 -373.327 2086.62 -259.331 2021.02 -118.92C2003.88 -82.2245 1986.22 -41.9885 1967.81 -2.51265C1943.22 50.2752 1912.79 101.383 1875.5 145.319C1836.62 191.306 1788.22 231.242 1734.92 251.685C1696.64 266.507 1656.82 268.748 1623.98 268.898C1616.01 268.938 1608.17 269.298 1600.1 269.748C1590.04 269.878 1579.21 270.068 1566.88 270.888C1548.29 272.118 1525.81 273.758 1500.58 277.129C1430 286.55 1338.53 308.443 1234.21 341.898C1163.63 364.532 1092.76 419.59 1044.96 493.731C1011.45 545.709 973.98 563.741 897.87 580.004C825.75 603.037 742.56 629.131 659.57 641.083C442.2 672.367 169.17 563.011 148.71 297.432" stroke="url(#paint58_linear_806_227)" stroke-width="0.5658" stroke-miterlimit="10"/>
<path d="M2125.37 -371.667C2116.4 -377.248 2090.36 -256.81 2027.23 -112.619C2011 -75.5534 1993.74 -35.5675 1975.27 3.60826C1950.61 55.946 1920.36 106.614 1883.55 150.43C1845.01 196.437 1797.74 236.233 1744.96 258.416C1707.01 274.478 1666.94 279.549 1631.06 281.009C1622.39 281.359 1613.74 281.839 1604.87 282.249C1593.77 282.329 1581.88 282.219 1568.64 282.5C1548.61 282.92 1525.19 283.43 1499.23 285.57C1427.14 291.501 1336.21 309.324 1232.58 347.689C1164.97 372.723 1095.89 426.271 1043.53 500.862C1007.13 552.72 964.31 576.263 890.8 595.366C818.26 620.4 735.07 644.013 652.39 653.094C429.32 677.598 165.55 563.921 147.54 302.863" stroke="url(#paint59_linear_806_227)" stroke-width="0.5658" stroke-miterlimit="10"/>
<path d="M2122.59 -377.448C2116.61 -381.169 2094.01 -254.28 2033.43 -106.338C2018.1 -68.8925 2001.26 -29.1666 1982.71 9.69918C1957.98 61.5869 1927.91 111.824 1891.58 155.501C1853.38 201.537 1807.23 241.183 1754.97 265.107C1717.34 282.41 1677.03 290.371 1638.12 293.071C1628.74 293.751 1619.29 294.331 1609.62 294.711C1597.47 294.731 1584.51 294.331 1570.38 294.081C1548.9 293.691 1524.54 293.091 1497.85 293.981C1424.19 296.442 1333.66 309.994 1230.93 353.46C1166.17 380.864 1098.99 433.002 1042.09 507.973C1002.77 559.781 954.62 588.765 883.73 610.718C810.77 637.762 727.67 658.825 645.2 665.106C416.55 682.509 161.91 564.841 146.37 308.293" stroke="url(#paint60_linear_806_227)" stroke-width="0.5658" stroke-miterlimit="10"/>
<path d="M2119.81 -383.219C2116.82 -385.08 2097.57 -251.74 2039.63 -100.037C2025.18 -62.2018 2008.77 -22.7558 1990.16 15.8199C1965.35 67.2475 1935.46 117.065 1899.63 160.601C1861.76 206.658 1816.75 246.164 1765 271.828C1727.7 290.37 1687.14 301.132 1645.19 305.173C1635.1 306.153 1624.86 306.853 1614.37 307.203C1601.18 307.163 1587.15 306.473 1572.12 305.683C1549.19 304.483 1523.86 302.772 1496.48 302.412C1421.19 301.422 1330.91 310.514 1229.28 359.251C1167.23 389.005 1102.06 439.833 1040.64 515.104C998.36 566.921 944.92 601.286 876.64 626.08C803.26 655.134 720.35 673.607 638 677.118C403.93 687.119 158.27 565.761 145.18 313.724" stroke="url(#paint61_linear_806_227)" stroke-width="0.5658" stroke-miterlimit="10"/>
<path d="M2117.03 -389C2117.03 -389 2037.42 307.823 1619.13 319.695C1487.79 318.775 1283.21 242.664 1039.21 522.245C795.21 801.836 161.54 727.655 144 319.195" stroke="url(#paint62_linear_806_227)" stroke-width="0.5658" stroke-miterlimit="10"/>
<path d="M2421.74 51.3653C2415.65 46.0645 2340.09 19.8507 2237.91 3.2682C2134.42 -13.5343 2006.05 -21.2855 1887.56 17.4903C1814.02 41.5538 1743.53 84.1002 1688.57 154.441C1681.42 163.642 1675.39 173.603 1670.24 183.985C1620.66 284.46 1577.55 378.544 1527.32 454.035C1503.08 490.46 1476.87 522.565 1447.74 549.779C1371.9 620.66 1276.32 658.845 1136.41 644.523C1059.66 636.672 970.52 610.908 870.71 567.592" stroke="url(#paint63_linear_806_227)" stroke-width="0.5658" stroke-miterlimit="10"/>
<path d="M2417.72 56.556C2409.61 49.485 2334.23 22.891 2233.32 4.77834C2128.83 -13.9844 2000.15 -24.686 1880.42 11.4193C1805.78 33.9227 1733.63 75.3788 1677.55 145.629C1670.29 154.791 1664.14 164.702 1658.86 175.034C1608.24 274.838 1566.06 369.892 1517.2 446.574C1493.74 483.389 1468.33 515.974 1440.05 543.868C1366.4 616.529 1273.3 658.075 1134.26 647.174C1057.04 641.123 967.05 616.119 867.38 573.493" stroke="url(#paint64_linear_806_227)" stroke-width="0.5658" stroke-miterlimit="10"/>
<path d="M2413.7 61.7467C2403.56 52.9054 2328.36 25.8814 2228.73 6.28854C2123.23 -14.4645 1994.24 -28.0866 1873.28 5.34834C1797.53 26.2914 1723.58 66.5475 1666.55 136.808C1659.16 145.909 1652.9 155.791 1647.49 166.082C1595.82 265.207 1554.57 361.241 1507.08 439.113C1484.4 476.308 1459.79 509.393 1432.35 537.967C1360.9 612.408 1270.25 657.355 1132.1 649.834C1054.4 645.603 963.57 621.33 864.04 579.403" stroke="url(#paint65_linear_806_227)" stroke-width="0.5658" stroke-miterlimit="10"/>
<path d="M2409.69 66.9376C2397.52 56.3361 2322.49 28.822 2224.16 7.79887C2117.64 -14.9845 1988.34 -31.507 1866.16 -0.722408C1789.3 18.6505 1713.68 57.8062 1655.55 127.997C1648.05 137.058 1641.65 146.879 1636.13 157.131C1583.21 255.475 1543.09 352.57 1496.98 431.652C1475.08 469.217 1451.27 502.802 1424.68 532.056C1355.43 608.278 1267.2 656.685 1129.97 652.484C1051.78 650.094 960.12 626.53 860.73 585.304" stroke="url(#paint66_linear_806_227)" stroke-width="0.5658" stroke-miterlimit="10"/>
<path d="M2405.67 72.1283C2391.47 59.7565 2316.62 31.7224 2219.57 9.30909C2112.03 -15.5346 1982.41 -34.9376 1859.02 -6.79339C1781.04 10.9992 1703.77 49.075 1644.54 119.175C1636.92 128.197 1630.4 137.968 1624.76 148.17C1570.77 245.824 1531.59 343.889 1486.87 424.18C1465.74 462.126 1442.74 496.201 1416.99 526.146C1349.94 604.137 1264.12 656.055 1127.83 655.135C1049.13 654.605 956.66 631.731 857.4 591.215" stroke="url(#paint67_linear_806_227)" stroke-width="0.5658" stroke-miterlimit="10"/>
<path d="M2401.65 77.3191C2385.42 63.1771 2310.75 34.5828 2214.98 10.8193C2106.41 -16.1147 1976.48 -38.388 1851.88 -12.8542C1772.78 3.34816 1693.86 40.3436 1633.53 110.374C1625.8 119.345 1619.16 129.077 1613.39 139.228C1558.34 236.193 1520.08 335.227 1476.75 416.729C1456.38 455.045 1434.2 489.63 1409.3 520.245C1344.45 600.017 1261.01 655.485 1125.68 657.795C1046.47 659.145 953.19 636.942 854.07 597.126" stroke="url(#paint68_linear_806_227)" stroke-width="0.5658" stroke-miterlimit="10"/>
<path d="M2397.63 82.5098C2379.37 66.5974 2304.89 37.3932 2210.39 12.3295C2100.79 -16.7449 1970.55 -41.8386 1844.74 -18.9252C1764.52 -4.31301 1683.95 31.6223 1622.52 101.563C1614.68 110.494 1607.91 120.165 1602.02 130.277C1545.9 226.551 1508.56 326.536 1466.64 409.268C1447.04 447.944 1425.68 483.039 1401.61 514.344C1338.95 595.896 1257.9 654.965 1123.53 660.455C1043.79 663.716 949.72 642.153 850.74 603.037" stroke="url(#paint69_linear_806_227)" stroke-width="0.5658" stroke-miterlimit="10"/>
<path d="M2393.62 87.7006C2373.33 70.028 2299.03 40.1635 2205.82 13.8396C2095.19 -17.405 1964.62 -45.3091 1837.62 -24.9961C1756.27 -11.9842 1674.06 22.891 1611.53 92.7413C1603.58 101.633 1596.69 111.254 1590.67 121.316C1533.5 216.91 1497.06 317.835 1456.54 401.797C1437.7 440.843 1417.16 476.448 1393.94 508.423C1333.48 591.755 1254.8 654.474 1121.4 663.096C1041.13 668.287 946.27 647.343 847.43 608.928" stroke="url(#paint70_linear_806_227)" stroke-width="0.5658" stroke-miterlimit="10"/>
<path d="M2389.6 92.9014C2367.28 73.4586 2293.18 42.904 2201.23 15.3599C2089.57 -18.085 1958.68 -48.7795 1830.48 -31.0568C1748 -19.6552 1664.16 14.1698 1600.52 83.9402C1592.45 92.7815 1585.44 102.363 1579.29 112.384C1521.06 207.288 1485.52 309.163 1446.42 394.356C1428.33 433.762 1408.62 469.877 1386.25 502.542C1327.99 587.655 1251.66 654.064 1119.25 665.776C1038.45 672.927 942.8 652.574 844.1 614.859" stroke="url(#paint71_linear_806_227)" stroke-width="0.5658" stroke-miterlimit="10"/>
<path d="M2385.58 98.0921C2361.23 76.8789 2287.33 45.5942 2196.64 16.87C2083.96 -18.8253 1952.73 -52.2703 1823.34 -37.128C1739.73 -27.3466 1654.25 5.44827 1589.51 75.1186C1581.33 83.9199 1574.2 93.4514 1567.92 103.423C1508.64 197.647 1473.98 300.452 1436.3 386.885C1418.97 426.651 1400.08 463.276 1378.55 496.631C1322.49 583.514 1248.52 653.674 1117.09 668.427C1035.75 677.558 939.32 657.775 840.76 620.769" stroke="url(#paint72_linear_806_227)" stroke-width="0.5658" stroke-miterlimit="10"/>
<path d="M2381.57 103.283C2355.2 80.3096 2281.5 48.2548 2192.06 18.3804C2078.37 -19.5952 1946.79 -55.7805 1816.21 -43.1987C1731.47 -35.0375 1644.36 -3.28278 1578.51 66.3075C1570.22 75.0688 1562.96 84.5501 1556.56 94.4716C1496.23 188.015 1462.45 291.741 1426.2 379.434C1409.61 419.55 1391.56 456.705 1370.88 490.73C1317.02 579.394 1245.41 653.344 1114.96 671.097C1033.08 682.239 935.87 663.006 837.45 626.691" stroke="url(#paint73_linear_806_227)" stroke-width="0.5658" stroke-miterlimit="10"/>
<path d="M2377.55 108.474C2349.15 83.7299 2275.66 50.8751 2187.48 19.8905C2072.79 -20.4055 1940.85 -59.2913 1809.08 -49.2698C1723.2 -42.7388 1634.48 -12.0043 1567.51 57.496C1559.11 66.2173 1551.73 75.6387 1545.2 85.5202C1483.82 178.384 1450.9 283.029 1416.09 371.973C1400.25 412.449 1383.03 450.114 1363.19 484.829C1311.52 575.273 1242.27 653.054 1112.81 673.757C1030.39 686.939 932.39 668.216 834.12 632.601" stroke="url(#paint74_linear_806_227)" stroke-width="0.5658" stroke-miterlimit="10"/>
<path d="M2373.53 113.664C2343.1 87.1506 2269.84 53.4656 2182.89 21.4008C2067.22 -21.2655 1934.9 -62.8116 1801.94 -55.3305C1714.93 -50.4398 1624.58 -20.7054 1556.5 48.6849C1547.99 57.3562 1540.48 66.7376 1533.83 76.569C1471.41 168.753 1439.34 274.318 1405.98 364.512C1390.88 405.338 1374.5 443.533 1355.51 478.919C1306.04 571.142 1239.16 652.794 1110.67 676.408C1027.72 691.65 928.93 673.417 830.8 638.502" stroke="url(#paint75_linear_806_227)" stroke-width="0.5658" stroke-miterlimit="10"/>
<path d="M2369.51 118.855C2337.05 90.5709 2264.03 56.0359 2178.3 22.911C2061.66 -22.1557 1928.95 -66.3523 1794.8 -61.4015C1706.66 -58.1511 1614.69 -29.4268 1545.49 39.8735C1536.87 48.5047 1529.24 57.8361 1522.45 67.6276C1458.99 159.131 1427.76 265.607 1395.85 357.06C1381.48 398.237 1365.96 436.952 1347.81 473.028C1300.54 567.032 1236.03 652.604 1108.51 679.078C1025.03 696.411 925.45 678.638 827.46 644.423" stroke="url(#paint76_linear_806_227)" stroke-width="0.5658" stroke-miterlimit="10"/>
<path d="M2365.5 124.046C2331.01 94.0016 2258.24 58.5664 2173.72 24.4213C2056.12 -23.0957 1923.01 -69.9026 1787.67 -67.4723C1698.39 -65.872 1604.81 -38.1379 1534.49 31.0623C1525.76 39.6536 1518.01 48.935 1511.09 58.6764C1446.59 149.51 1416.18 256.896 1385.75 349.599C1372.12 391.126 1357.44 430.371 1340.13 467.117C1295.06 562.901 1232.93 652.424 1106.38 681.729C1022.38 701.172 922 683.839 824.15 650.324" stroke="url(#paint77_linear_806_227)" stroke-width="0.5658" stroke-miterlimit="10"/>
<path d="M2361.48 129.247C2324.96 97.432 2252.46 61.0867 2169.14 25.9415C2050.61 -24.0559 1917.07 -73.4433 1780.54 -73.5333C1690.13 -73.5934 1594.93 -46.8494 1523.49 22.2509C1514.65 30.8021 1506.77 40.0335 1499.73 49.7249C1434.19 139.878 1404.6 248.174 1375.64 342.138C1362.73 384.014 1348.91 423.78 1332.45 461.216C1289.58 558.77 1229.85 652.294 1104.24 684.389C1019.73 705.972 918.54 689.049 820.83 656.245" stroke="url(#paint78_linear_806_227)" stroke-width="0.5658" stroke-miterlimit="10"/>
<path d="M2357.46 134.437C2318.91 100.852 2246.68 63.5669 2164.55 27.4516C2045.1 -25.0762 1911.12 -77.0139 1773.4 -79.6043C1681.86 -81.3245 1585.04 -55.5607 1512.48 13.4395C1503.53 21.9508 1495.53 31.1321 1488.36 40.7735C1421.79 130.257 1393 239.443 1365.53 334.677C1353.35 376.903 1340.38 417.189 1324.76 455.305C1284.08 554.64 1226.77 652.194 1102.09 687.039C1017.08 710.793 915.07 694.25 817.5 662.146" stroke="url(#paint79_linear_806_227)" stroke-width="0.5658" stroke-miterlimit="10"/>
<path d="M2353.44 139.628C2312.86 104.273 2240.93 66.0273 2159.96 28.9619C2039.62 -26.1263 1905.18 -80.5844 1766.26 -85.6751C1673.59 -89.0656 1575.15 -64.2619 1501.47 4.61829C1492.41 13.0895 1484.29 22.221 1476.99 31.8124C1409.39 120.626 1381.39 230.712 1355.41 327.206C1343.95 369.782 1331.84 410.598 1317.07 449.394C1278.59 550.509 1223.71 652.124 1099.94 689.69C1014.44 715.644 911.6 699.451 814.17 668.046" stroke="url(#paint80_linear_806_227)" stroke-width="0.5658" stroke-miterlimit="10"/>
<path d="M2349.43 144.819C2306.83 107.704 2235.19 68.4678 2155.38 30.4722C2034.18 -27.2263 1899.24 -84.1647 1759.13 -91.7458C1665.33 -96.8166 1565.28 -72.973 1490.47 -4.19282C1481.3 4.23843 1473.06 13.3197 1465.62 22.8611C1396.99 111.014 1369.77 221.991 1345.3 319.745C1334.55 362.672 1323.31 404.008 1309.38 443.483C1273.1 546.379 1220.67 652.084 1097.79 692.34C1011.81 720.504 908.13 704.662 810.84 673.948" stroke="url(#paint81_linear_806_227)" stroke-width="0.5658" stroke-miterlimit="10"/>
<path d="M2345.41 150.01C2300.78 111.124 2229.47 70.888 2150.8 31.9823C2028.76 -28.3667 1893.31 -87.7555 1751.99 -97.807C1657.07 -104.558 1555.4 -81.6645 1479.46 -12.9944C1470.18 -4.60311 1461.82 4.42827 1454.25 13.9297C1384.59 101.413 1358.14 213.279 1335.19 312.304C1325.16 355.58 1314.78 397.446 1301.7 437.602C1267.62 542.278 1217.65 652.094 1095.65 695.02C1009.21 725.425 904.671 709.893 807.521 679.878" stroke="url(#paint82_linear_806_227)" stroke-width="0.5658" stroke-miterlimit="10"/>
<path d="M2341.39 155.201C2294.73 114.545 2223.76 73.2886 2146.21 33.4927C2023.37 -29.5466 1887.38 -91.3558 1744.85 -103.878C1648.8 -112.319 1545.51 -90.3656 1468.45 -21.8154C1459.06 -13.4642 1450.57 -4.48295 1442.88 4.96845C1372.19 91.7913 1346.51 204.548 1325.07 304.843C1315.75 348.469 1306.25 390.856 1294.01 431.692C1262.13 538.137 1214.65 652.114 1093.5 697.671C1006.62 730.346 901.2 715.094 804.18 685.789" stroke="url(#paint83_linear_806_227)" stroke-width="0.5658" stroke-miterlimit="10"/>
<path d="M2337.37 160.391C2288.68 117.975 2218.06 75.6689 2141.62 35.0028C2018 -30.7669 1881.44 -94.9663 1737.71 -109.949C1640.54 -120.08 1535.63 -99.067 1457.44 -30.6269C1447.94 -22.3156 1439.33 -13.3843 1431.51 -3.98292C1359.8 82.1798 1334.86 195.817 1314.96 297.382C1306.34 341.348 1297.72 384.265 1286.32 425.791C1256.63 534.017 1211.68 652.154 1091.35 700.331C1004.04 735.286 897.73 720.304 800.85 691.7" stroke="url(#paint84_linear_806_227)" stroke-width="0.5658" stroke-miterlimit="10"/>
<path d="M2333.36 165.592C2282.64 121.406 2212.4 78.0492 2137.04 36.523C2012.68 -32.0171 1875.52 -98.567 1730.58 -116.01C1632.29 -127.841 1525.9 -107.598 1446.44 -39.4281C1436.85 -31.1369 1428.1 -22.2756 1420.15 -12.9242C1347.42 72.5784 1323.22 187.105 1304.85 289.931C1296.93 334.247 1289.19 377.694 1278.64 419.89C1251.15 529.896 1208.73 652.214 1089.21 702.992C1001.5 740.257 894.27 725.515 797.53 697.611" stroke="url(#paint85_linear_806_227)" stroke-width="0.5658" stroke-miterlimit="10"/>
<path d="M2329.34 170.783C2276.59 124.826 2206.74 80.4094 2132.45 38.0332C2007.38 -33.3174 1869.6 -102.188 1723.44 -122.081C1624.03 -135.613 1516.01 -116.32 1435.43 -48.2496C1425.73 -39.9984 1416.88 -31.1671 1408.78 -21.8857C1335.18 63.0868 1311.55 178.374 1294.74 282.459C1287.52 327.126 1280.66 371.092 1270.95 413.979C1245.66 525.765 1205.8 652.294 1087.06 705.642C998.96 745.228 890.8 730.716 794.2 703.512" stroke="url(#paint86_linear_806_227)" stroke-width="0.5658" stroke-miterlimit="10"/>
<path d="M2325.32 175.974C2270.54 128.247 2201.1 82.75 2127.87 39.5436C2002.13 -34.6473 1863.69 -105.808 1716.31 -128.151C1615.79 -143.393 1506.12 -125.031 1424.43 -57.0606C1414.62 -48.8494 1405.64 -40.0681 1397.41 -30.8368C1322.76 53.4657 1299.88 169.653 1284.62 274.998C1278.1 320.025 1272.12 364.512 1263.26 408.068C1240.17 521.635 1202.9 652.374 1084.91 708.293C996.44 750.219 887.33 735.917 790.87 709.413" stroke="url(#paint87_linear_806_227)" stroke-width="0.5658" stroke-miterlimit="10"/>
<path d="M2321.31 181.164C2264.5 131.677 2195.48 85.0902 2123.29 41.0537C1996.92 -36.0277 1857.78 -109.439 1709.18 -134.222C1607.55 -151.175 1496.23 -133.752 1413.43 -65.8822C1403.51 -57.711 1394.41 -48.9897 1386.05 -39.7883C1310.36 43.834 1288.21 160.931 1274.52 267.537C1268.69 312.914 1263.6 357.921 1255.59 402.167C1234.7 517.514 1200.04 652.494 1082.79 710.953C993.97 755.239 883.89 741.127 787.57 715.323" stroke="url(#paint88_linear_806_227)" stroke-width="0.5658" stroke-miterlimit="10"/>
<path d="M2317.29 186.355C2258.46 135.098 2189.88 87.4106 2118.7 42.564C1991.74 -37.4378 1851.91 -113.309 1702.04 -140.283C1599.33 -159.106 1486.34 -142.453 1402.42 -74.6833C1392.39 -66.5521 1383.17 -57.8809 1374.68 -48.7295C1297.94 34.2228 1276.53 152.23 1264.4 260.086C1259.26 305.813 1255.06 351.34 1247.89 396.266C1229.19 513.384 1197.18 652.614 1080.63 713.613C991.48 760.27 880.41 746.338 784.23 721.245" stroke="url(#paint89_linear_806_227)" stroke-width="0.5658" stroke-miterlimit="10"/>
<path d="M2313.27 191.546C2252.41 138.518 2184.29 89.7309 2114.11 44.0742C1986.6 -38.8881 1845.98 -116.83 1694.9 -146.354C1591.07 -166.817 1476.44 -151.175 1391.41 -83.4948C1381.27 -75.4136 1371.92 -66.7822 1363.31 -57.6809C1285.53 24.6013 1264.71 143.509 1254.29 252.625C1249.78 298.702 1246.54 344.759 1240.21 390.365C1223.71 509.263 1194.36 652.744 1078.49 716.274C989.03 765.321 876.95 751.559 780.91 727.155" stroke="url(#paint90_linear_806_227)" stroke-width="0.5658" stroke-miterlimit="10"/>
<path d="M2309.25 196.737C2246.36 141.939 2178.72 92.0414 2109.53 45.5845C1981.52 -40.3682 1840.07 -120.35 1687.77 -152.425C1582.82 -174.528 1466.55 -159.886 1380.41 -92.3159C1277.69 -11.734 1254.13 122.556 1244.18 245.154C1240.41 291.591 1238.01 338.158 1232.52 384.445C1218.22 505.122 1191.56 652.864 1076.34 718.914C986.59 770.362 873.48 756.75 777.58 733.046" stroke="url(#paint91_linear_806_227)" stroke-width="0.5658" stroke-miterlimit="10"/>
</g>
</g>
<defs>
<linearGradient id="paint0_linear_806_227" x1="840.92" y1="-50.9439" x2="1571.34" y2="676.686" gradientUnits="userSpaceOnUse">
<stop stop-color="#1BA4E5" stop-opacity="0.5"/>
<stop offset="1" stop-color="#B40FE7"/>
</linearGradient>
<linearGradient id="paint1_linear_806_227" x1="847.274" y1="-52.2423" x2="1571.08" y2="668.801" gradientUnits="userSpaceOnUse">
<stop stop-color="#1BA4E5" stop-opacity="0.5"/>
<stop offset="1" stop-color="#B40FE7"/>
</linearGradient>
<linearGradient id="paint2_linear_806_227" x1="843.433" y1="-63.9446" x2="1570.95" y2="660.791" gradientUnits="userSpaceOnUse">
<stop stop-color="#1BA4E5" stop-opacity="0.5"/>
<stop offset="1" stop-color="#B40FE7"/>
</linearGradient>
<linearGradient id="paint3_linear_806_227" x1="839.716" y1="-75.7695" x2="1570.94" y2="652.659" gradientUnits="userSpaceOnUse">
<stop stop-color="#1BA4E5" stop-opacity="0.5"/>
<stop offset="1" stop-color="#B40FE7"/>
</linearGradient>
<linearGradient id="paint4_linear_806_227" x1="836.171" y1="-87.7672" x2="1571.1" y2="644.353" gradientUnits="userSpaceOnUse">
<stop stop-color="#1BA4E5" stop-opacity="0.5"/>
<stop offset="1" stop-color="#B40FE7"/>
</linearGradient>
<linearGradient id="paint5_linear_806_227" x1="832.713" y1="-99.8515" x2="1571.35" y2="635.961" gradientUnits="userSpaceOnUse">
<stop stop-color="#1BA4E5" stop-opacity="0.5"/>
<stop offset="1" stop-color="#B40FE7"/>
</linearGradient>
<linearGradient id="paint6_linear_806_227" x1="829.379" y1="-112.06" x2="1571.72" y2="627.444" gradientUnits="userSpaceOnUse">
<stop stop-color="#1BA4E5" stop-opacity="0.5"/>
<stop offset="1" stop-color="#B40FE7"/>
</linearGradient>
<linearGradient id="paint7_linear_806_227" x1="826.169" y1="-124.392" x2="1572.21" y2="618.803" gradientUnits="userSpaceOnUse">
<stop stop-color="#1BA4E5" stop-opacity="0.5"/>
<stop offset="1" stop-color="#B40FE7"/>
</linearGradient>
<linearGradient id="paint8_linear_806_227" x1="823.083" y1="-136.849" x2="1572.83" y2="610.037" gradientUnits="userSpaceOnUse">
<stop stop-color="#1BA4E5" stop-opacity="0.5"/>
<stop offset="1" stop-color="#B40FE7"/>
</linearGradient>
<linearGradient id="paint9_linear_806_227" x1="820.124" y1="-149.431" x2="1573.58" y2="601.146" gradientUnits="userSpaceOnUse">
<stop stop-color="#1BA4E5" stop-opacity="0.5"/>
<stop offset="1" stop-color="#B40FE7"/>
</linearGradient>
<linearGradient id="paint10_linear_806_227" x1="817.29" y1="-162.138" x2="1574.45" y2="592.128" gradientUnits="userSpaceOnUse">
<stop stop-color="#1BA4E5" stop-opacity="0.5"/>
<stop offset="1" stop-color="#B40FE7"/>
</linearGradient>
<linearGradient id="paint11_linear_806_227" x1="814.582" y1="-174.97" x2="1575.44" y2="582.985" gradientUnits="userSpaceOnUse">
<stop stop-color="#1BA4E5" stop-opacity="0.5"/>
<stop offset="1" stop-color="#B40FE7"/>
</linearGradient>
<linearGradient id="paint12_linear_806_227" x1="812" y1="-187.928" x2="1576.56" y2="573.715" gradientUnits="userSpaceOnUse">
<stop stop-color="#1BA4E5" stop-opacity="0.5"/>
<stop offset="1" stop-color="#B40FE7"/>
</linearGradient>
<linearGradient id="paint13_linear_806_227" x1="809.545" y1="-201.012" x2="1577.81" y2="564.32" gradientUnits="userSpaceOnUse">
<stop stop-color="#1BA4E5" stop-opacity="0.5"/>
<stop offset="1" stop-color="#B40FE7"/>
</linearGradient>
<linearGradient id="paint14_linear_806_227" x1="807.215" y1="-214.22" x2="1579.18" y2="554.799" gradientUnits="userSpaceOnUse">
<stop stop-color="#1BA4E5" stop-opacity="0.5"/>
<stop offset="1" stop-color="#B40FE7"/>
</linearGradient>
<linearGradient id="paint15_linear_806_227" x1="805.01" y1="-227.553" x2="1580.68" y2="545.153" gradientUnits="userSpaceOnUse">
<stop stop-color="#1BA4E5" stop-opacity="0.5"/>
<stop offset="1" stop-color="#B40FE7"/>
</linearGradient>
<linearGradient id="paint16_linear_806_227" x1="802.928" y1="-241.008" x2="1582.3" y2="535.384" gradientUnits="userSpaceOnUse">
<stop stop-color="#1BA4E5" stop-opacity="0.5"/>
<stop offset="1" stop-color="#B40FE7"/>
</linearGradient>
<linearGradient id="paint17_linear_806_227" x1="800.967" y1="-254.583" x2="1584.03" y2="525.495" gradientUnits="userSpaceOnUse">
<stop stop-color="#1BA4E5" stop-opacity="0.5"/>
<stop offset="1" stop-color="#B40FE7"/>
</linearGradient>
<linearGradient id="paint18_linear_806_227" x1="799.076" y1="-268.227" x2="1585.85" y2="515.542" gradientUnits="userSpaceOnUse">
<stop stop-color="#1BA4E5" stop-opacity="0.5"/>
<stop offset="1" stop-color="#B40FE7"/>
</linearGradient>
<linearGradient id="paint19_linear_806_227" x1="797.187" y1="-281.872" x2="1587.67" y2="505.588" gradientUnits="userSpaceOnUse">
<stop stop-color="#1BA4E5" stop-opacity="0.5"/>
<stop offset="1" stop-color="#B40FE7"/>
</linearGradient>
<linearGradient id="paint20_linear_806_227" x1="795.299" y1="-295.516" x2="1589.48" y2="495.635" gradientUnits="userSpaceOnUse">
<stop stop-color="#1BA4E5" stop-opacity="0.5"/>
<stop offset="1" stop-color="#B40FE7"/>
</linearGradient>
<linearGradient id="paint21_linear_806_227" x1="793.41" y1="-309.16" x2="1591.3" y2="485.681" gradientUnits="userSpaceOnUse">
<stop stop-color="#1BA4E5" stop-opacity="0.5"/>
<stop offset="1" stop-color="#B40FE7"/>
</linearGradient>
<linearGradient id="paint22_linear_806_227" x1="791.468" y1="-322.765" x2="1593.07" y2="475.774" gradientUnits="userSpaceOnUse">
<stop stop-color="#1BA4E5" stop-opacity="0.5"/>
<stop offset="1" stop-color="#B40FE7"/>
</linearGradient>
<linearGradient id="paint23_linear_806_227" x1="788.919" y1="-335.795" x2="1594.25" y2="466.458" gradientUnits="userSpaceOnUse">
<stop stop-color="#1BA4E5" stop-opacity="0.5"/>
<stop offset="1" stop-color="#B40FE7"/>
</linearGradient>
<linearGradient id="paint24_linear_806_227" x1="785.752" y1="-348.203" x2="1594.81" y2="457.764" gradientUnits="userSpaceOnUse">
<stop stop-color="#1BA4E5" stop-opacity="0.5"/>
<stop offset="1" stop-color="#B40FE7"/>
</linearGradient>
<linearGradient id="paint25_linear_806_227" x1="782.087" y1="-360.113" x2="1594.87" y2="449.569" gradientUnits="userSpaceOnUse">
<stop stop-color="#1BA4E5" stop-opacity="0.5"/>
<stop offset="1" stop-color="#B40FE7"/>
</linearGradient>
<linearGradient id="paint26_linear_806_227" x1="778.017" y1="-371.615" x2="1594.53" y2="441.781" gradientUnits="userSpaceOnUse">
<stop stop-color="#1BA4E5" stop-opacity="0.5"/>
<stop offset="1" stop-color="#B40FE7"/>
</linearGradient>
<linearGradient id="paint27_linear_806_227" x1="773.612" y1="-382.78" x2="1593.85" y2="434.329" gradientUnits="userSpaceOnUse">
<stop stop-color="#1BA4E5" stop-opacity="0.5"/>
<stop offset="1" stop-color="#B40FE7"/>
</linearGradient>
<linearGradient id="paint28_linear_806_227" x1="768.928" y1="-393.664" x2="1592.9" y2="427.159" gradientUnits="userSpaceOnUse">
<stop stop-color="#1BA4E5" stop-opacity="0.5"/>
<stop offset="1" stop-color="#B40FE7"/>
</linearGradient>
<linearGradient id="paint29_linear_806_227" x1="764.007" y1="-404.308" x2="1591.7" y2="420.227" gradientUnits="userSpaceOnUse">
<stop stop-color="#1BA4E5" stop-opacity="0.5"/>
<stop offset="1" stop-color="#B40FE7"/>
</linearGradient>
<linearGradient id="paint30_linear_806_227" x1="758.884" y1="-414.749" x2="1590.31" y2="413.498" gradientUnits="userSpaceOnUse">
<stop stop-color="#1BA4E5" stop-opacity="0.5"/>
<stop offset="1" stop-color="#B40FE7"/>
</linearGradient>
<linearGradient id="paint31_linear_806_227" x1="753.587" y1="-425.014" x2="1588.73" y2="406.945" gradientUnits="userSpaceOnUse">
<stop stop-color="#1BA4E5" stop-opacity="0.5"/>
<stop offset="1" stop-color="#B40FE7"/>
</linearGradient>
<linearGradient id="paint32_linear_806_227" x1="754.682" y1="-421.854" x2="1583.42" y2="403.716" gradientUnits="userSpaceOnUse">
<stop stop-color="#1BA4E5" stop-opacity="0.5"/>
<stop offset="1" stop-color="#B40FE7"/>
</linearGradient>
<linearGradient id="paint33_linear_806_227" x1="755.765" y1="-418.683" x2="1578.09" y2="400.5" gradientUnits="userSpaceOnUse">
<stop stop-color="#1BA4E5" stop-opacity="0.5"/>
<stop offset="1" stop-color="#B40FE7"/>
</linearGradient>
<linearGradient id="paint34_linear_806_227" x1="756.835" y1="-415.497" x2="1572.74" y2="397.298" gradientUnits="userSpaceOnUse">
<stop stop-color="#1BA4E5" stop-opacity="0.5"/>
<stop offset="1" stop-color="#B40FE7"/>
</linearGradient>
<linearGradient id="paint35_linear_806_227" x1="757.89" y1="-412.298" x2="1567.39" y2="394.11" gradientUnits="userSpaceOnUse">
<stop stop-color="#1BA4E5" stop-opacity="0.5"/>
<stop offset="1" stop-color="#B40FE7"/>
</linearGradient>
<linearGradient id="paint36_linear_806_227" x1="758.931" y1="-409.084" x2="1562.02" y2="390.936" gradientUnits="userSpaceOnUse">
<stop stop-color="#1BA4E5" stop-opacity="0.5"/>
<stop offset="1" stop-color="#B40FE7"/>
</linearGradient>
<linearGradient id="paint37_linear_806_227" x1="759.958" y1="-405.855" x2="1556.63" y2="387.777" gradientUnits="userSpaceOnUse">
<stop stop-color="#1BA4E5" stop-opacity="0.5"/>
<stop offset="1" stop-color="#B40FE7"/>
</linearGradient>
<linearGradient id="paint38_linear_806_227" x1="760.966" y1="-402.609" x2="1551.23" y2="384.635" gradientUnits="userSpaceOnUse">
<stop stop-color="#1BA4E5" stop-opacity="0.5"/>
<stop offset="1" stop-color="#B40FE7"/>
</linearGradient>
<linearGradient id="paint39_linear_806_227" x1="761.959" y1="-399.346" x2="1545.81" y2="381.51" gradientUnits="userSpaceOnUse">
<stop stop-color="#1BA4E5" stop-opacity="0.5"/>
<stop offset="1" stop-color="#B40FE7"/>
</linearGradient>
<linearGradient id="paint40_linear_806_227" x1="762.934" y1="-396.066" x2="1540.37" y2="378.403" gradientUnits="userSpaceOnUse">
<stop stop-color="#1BA4E5" stop-opacity="0.5"/>
<stop offset="1" stop-color="#B40FE7"/>
</linearGradient>
<linearGradient id="paint41_linear_806_227" x1="763.889" y1="-392.767" x2="1534.91" y2="375.314" gradientUnits="userSpaceOnUse">
<stop stop-color="#1BA4E5" stop-opacity="0.5"/>
<stop offset="1" stop-color="#B40FE7"/>
</linearGradient>
<linearGradient id="paint42_linear_806_227" x1="764.827" y1="-389.45" x2="1529.44" y2="372.244" gradientUnits="userSpaceOnUse">
<stop stop-color="#1BA4E5" stop-opacity="0.5"/>
<stop offset="1" stop-color="#B40FE7"/>
</linearGradient>
<linearGradient id="paint43_linear_806_227" x1="765.745" y1="-386.112" x2="1523.95" y2="369.194" gradientUnits="userSpaceOnUse">
<stop stop-color="#1BA4E5" stop-opacity="0.5"/>
<stop offset="1" stop-color="#B40FE7"/>
</linearGradient>
<linearGradient id="paint44_linear_806_227" x1="766.642" y1="-382.754" x2="1518.43" y2="366.165" gradientUnits="userSpaceOnUse">
<stop stop-color="#1BA4E5" stop-opacity="0.5"/>
<stop offset="1" stop-color="#B40FE7"/>
</linearGradient>
<linearGradient id="paint45_linear_806_227" x1="767.519" y1="-379.376" x2="1512.9" y2="363.156" gradientUnits="userSpaceOnUse">
<stop stop-color="#1BA4E5" stop-opacity="0.5"/>
<stop offset="1" stop-color="#B40FE7"/>
</linearGradient>
<linearGradient id="paint46_linear_806_227" x1="768.375" y1="-375.976" x2="1507.34" y2="360.168" gradientUnits="userSpaceOnUse">
<stop stop-color="#1BA4E5" stop-opacity="0.5"/>
<stop offset="1" stop-color="#B40FE7"/>
</linearGradient>
<linearGradient id="paint47_linear_806_227" x1="769.209" y1="-372.555" x2="1511.36" y2="366.762" gradientUnits="userSpaceOnUse">
<stop stop-color="#1BA4E5" stop-opacity="0.5"/>
<stop offset="1" stop-color="#B40FE7"/>
</linearGradient>
<linearGradient id="paint48_linear_806_227" x1="770.022" y1="-369.113" x2="1516.67" y2="374.682" gradientUnits="userSpaceOnUse">
<stop stop-color="#1BA4E5" stop-opacity="0.5"/>
<stop offset="1" stop-color="#B40FE7"/>
</linearGradient>
<linearGradient id="paint49_linear_806_227" x1="770.813" y1="-365.649" x2="1521.96" y2="382.629" gradientUnits="userSpaceOnUse">
<stop stop-color="#1BA4E5" stop-opacity="0.5"/>
<stop offset="1" stop-color="#B40FE7"/>
</linearGradient>
<linearGradient id="paint50_linear_806_227" x1="771.584" y1="-362.164" x2="1527.24" y2="390.605" gradientUnits="userSpaceOnUse">
<stop stop-color="#1BA4E5" stop-opacity="0.5"/>
<stop offset="1" stop-color="#B40FE7"/>
</linearGradient>
<linearGradient id="paint51_linear_806_227" x1="772.334" y1="-358.658" x2="1532.5" y2="398.61" gradientUnits="userSpaceOnUse">
<stop stop-color="#1BA4E5" stop-opacity="0.5"/>
<stop offset="1" stop-color="#B40FE7"/>
</linearGradient>
<linearGradient id="paint52_linear_806_227" x1="773.063" y1="-355.132" x2="1537.76" y2="406.644" gradientUnits="userSpaceOnUse">
<stop stop-color="#1BA4E5" stop-opacity="0.5"/>
<stop offset="1" stop-color="#B40FE7"/>
</linearGradient>
<linearGradient id="paint53_linear_806_227" x1="773.774" y1="-351.587" x2="1543" y2="414.707" gradientUnits="userSpaceOnUse">
<stop stop-color="#1BA4E5" stop-opacity="0.5"/>
<stop offset="1" stop-color="#B40FE7"/>
</linearGradient>
<linearGradient id="paint54_linear_806_227" x1="774.466" y1="-348.024" x2="1548.24" y2="422.798" gradientUnits="userSpaceOnUse">
<stop stop-color="#1BA4E5" stop-opacity="0.5"/>
<stop offset="1" stop-color="#B40FE7"/>
</linearGradient>
<linearGradient id="paint55_linear_806_227" x1="775.141" y1="-344.444" x2="1553.48" y2="430.919" gradientUnits="userSpaceOnUse">
<stop stop-color="#1BA4E5" stop-opacity="0.5"/>
<stop offset="1" stop-color="#B40FE7"/>
</linearGradient>
<linearGradient id="paint56_linear_806_227" x1="775.801" y1="-340.849" x2="1558.71" y2="439.069" gradientUnits="userSpaceOnUse">
<stop stop-color="#1BA4E5" stop-opacity="0.5"/>
<stop offset="1" stop-color="#B40FE7"/>
</linearGradient>
<linearGradient id="paint57_linear_806_227" x1="776.447" y1="-337.239" x2="1563.94" y2="447.247" gradientUnits="userSpaceOnUse">
<stop stop-color="#1BA4E5" stop-opacity="0.5"/>
<stop offset="1" stop-color="#B40FE7"/>
</linearGradient>
<linearGradient id="paint58_linear_806_227" x1="777.08" y1="-333.616" x2="1569.18" y2="455.461" gradientUnits="userSpaceOnUse">
<stop stop-color="#1BA4E5" stop-opacity="0.5"/>
<stop offset="1" stop-color="#B40FE7"/>
</linearGradient>
<linearGradient id="paint59_linear_806_227" x1="777.701" y1="-329.982" x2="1574.42" y2="463.699" gradientUnits="userSpaceOnUse">
<stop stop-color="#1BA4E5" stop-opacity="0.5"/>
<stop offset="1" stop-color="#B40FE7"/>
</linearGradient>
<linearGradient id="paint60_linear_806_227" x1="778.313" y1="-326.338" x2="1579.68" y2="471.967" gradientUnits="userSpaceOnUse">
<stop stop-color="#1BA4E5" stop-opacity="0.5"/>
<stop offset="1" stop-color="#B40FE7"/>
</linearGradient>
<linearGradient id="paint61_linear_806_227" x1="778.913" y1="-322.684" x2="1584.94" y2="480.269" gradientUnits="userSpaceOnUse">
<stop stop-color="#1BA4E5" stop-opacity="0.5"/>
<stop offset="1" stop-color="#B40FE7"/>
</linearGradient>
<linearGradient id="paint62_linear_806_227" x1="779.47" y1="-318.985" x2="1590.19" y2="488.644" gradientUnits="userSpaceOnUse">
<stop stop-color="#1BA4E5" stop-opacity="0.5"/>
<stop offset="1" stop-color="#B40FE7"/>
</linearGradient>
<linearGradient id="paint63_linear_806_227" x1="1345.57" y1="39.1277" x2="1946.88" y2="579.642" gradientUnits="userSpaceOnUse">
<stop stop-color="#1BA4E5" stop-opacity="0.5"/>
<stop offset="1" stop-color="#B40FE7"/>
</linearGradient>
<linearGradient id="paint64_linear_806_227" x1="1342.26" y1="45.0097" x2="1942.84" y2="584.86" gradientUnits="userSpaceOnUse">
<stop stop-color="#1BA4E5" stop-opacity="0.5"/>
<stop offset="1" stop-color="#B40FE7"/>
</linearGradient>
<linearGradient id="paint65_linear_806_227" x1="1338.96" y1="50.8916" x2="1938.8" y2="590.079" gradientUnits="userSpaceOnUse">
<stop stop-color="#1BA4E5" stop-opacity="0.5"/>
<stop offset="1" stop-color="#B40FE7"/>
</linearGradient>
<linearGradient id="paint66_linear_806_227" x1="1335.66" y1="56.7738" x2="1934.76" y2="595.297" gradientUnits="userSpaceOnUse">
<stop stop-color="#1BA4E5" stop-opacity="0.5"/>
<stop offset="1" stop-color="#B40FE7"/>
</linearGradient>
<linearGradient id="paint67_linear_806_227" x1="1332.35" y1="62.6557" x2="1930.72" y2="600.516" gradientUnits="userSpaceOnUse">
<stop stop-color="#1BA4E5" stop-opacity="0.5"/>
<stop offset="1" stop-color="#B40FE7"/>
</linearGradient>
<linearGradient id="paint68_linear_806_227" x1="1329.05" y1="68.5379" x2="1926.68" y2="605.734" gradientUnits="userSpaceOnUse">
<stop stop-color="#1BA4E5" stop-opacity="0.5"/>
<stop offset="1" stop-color="#B40FE7"/>
</linearGradient>
<linearGradient id="paint69_linear_806_227" x1="1325.75" y1="74.4198" x2="1922.64" y2="610.953" gradientUnits="userSpaceOnUse">
<stop stop-color="#1BA4E5" stop-opacity="0.5"/>
<stop offset="1" stop-color="#B40FE7"/>
</linearGradient>
<linearGradient id="paint70_linear_806_227" x1="1322.45" y1="80.3017" x2="1918.59" y2="616.171" gradientUnits="userSpaceOnUse">
<stop stop-color="#1BA4E5" stop-opacity="0.5"/>
<stop offset="1" stop-color="#B40FE7"/>
</linearGradient>
<linearGradient id="paint71_linear_806_227" x1="1319.14" y1="86.1838" x2="1914.55" y2="621.39" gradientUnits="userSpaceOnUse">
<stop stop-color="#1BA4E5" stop-opacity="0.5"/>
<stop offset="1" stop-color="#B40FE7"/>
</linearGradient>
<linearGradient id="paint72_linear_806_227" x1="1315.84" y1="92.0655" x2="1910.51" y2="626.608" gradientUnits="userSpaceOnUse">
<stop stop-color="#1BA4E5" stop-opacity="0.5"/>
<stop offset="1" stop-color="#B40FE7"/>
</linearGradient>
<linearGradient id="paint73_linear_806_227" x1="1312.54" y1="97.9477" x2="1906.47" y2="631.827" gradientUnits="userSpaceOnUse">
<stop stop-color="#1BA4E5" stop-opacity="0.5"/>
<stop offset="1" stop-color="#B40FE7"/>
</linearGradient>
<linearGradient id="paint74_linear_806_227" x1="1309.23" y1="103.829" x2="1902.43" y2="637.045" gradientUnits="userSpaceOnUse">
<stop stop-color="#1BA4E5" stop-opacity="0.5"/>
<stop offset="1" stop-color="#B40FE7"/>
</linearGradient>
<linearGradient id="paint75_linear_806_227" x1="1305.93" y1="109.712" x2="1898.39" y2="642.263" gradientUnits="userSpaceOnUse">
<stop stop-color="#1BA4E5" stop-opacity="0.5"/>
<stop offset="1" stop-color="#B40FE7"/>
</linearGradient>
<linearGradient id="paint76_linear_806_227" x1="1302.63" y1="115.593" x2="1894.35" y2="647.482" gradientUnits="userSpaceOnUse">
<stop stop-color="#1BA4E5" stop-opacity="0.5"/>
<stop offset="1" stop-color="#B40FE7"/>
</linearGradient>
<linearGradient id="paint77_linear_806_227" x1="1299.33" y1="121.475" x2="1890.31" y2="652.7" gradientUnits="userSpaceOnUse">
<stop stop-color="#1BA4E5" stop-opacity="0.5"/>
<stop offset="1" stop-color="#B40FE7"/>
</linearGradient>
<linearGradient id="paint78_linear_806_227" x1="1296.02" y1="127.357" x2="1886.27" y2="657.919" gradientUnits="userSpaceOnUse">
<stop stop-color="#1BA4E5" stop-opacity="0.5"/>
<stop offset="1" stop-color="#B40FE7"/>
</linearGradient>
<linearGradient id="paint79_linear_806_227" x1="1292.72" y1="133.239" x2="1882.23" y2="663.137" gradientUnits="userSpaceOnUse">
<stop stop-color="#1BA4E5" stop-opacity="0.5"/>
<stop offset="1" stop-color="#B40FE7"/>
</linearGradient>
<linearGradient id="paint80_linear_806_227" x1="1289.42" y1="139.121" x2="1878.19" y2="668.355" gradientUnits="userSpaceOnUse">
<stop stop-color="#1BA4E5" stop-opacity="0.5"/>
<stop offset="1" stop-color="#B40FE7"/>
</linearGradient>
<linearGradient id="paint81_linear_806_227" x1="1286.11" y1="145.003" x2="1874.14" y2="673.574" gradientUnits="userSpaceOnUse">
<stop stop-color="#1BA4E5" stop-opacity="0.5"/>
<stop offset="1" stop-color="#B40FE7"/>
</linearGradient>
<linearGradient id="paint82_linear_806_227" x1="1282.81" y1="150.885" x2="1870.1" y2="678.792" gradientUnits="userSpaceOnUse">
<stop stop-color="#1BA4E5" stop-opacity="0.5"/>
<stop offset="1" stop-color="#B40FE7"/>
</linearGradient>
<linearGradient id="paint83_linear_806_227" x1="1279.51" y1="156.767" x2="1866.06" y2="684.011" gradientUnits="userSpaceOnUse">
<stop stop-color="#1BA4E5" stop-opacity="0.5"/>
<stop offset="1" stop-color="#B40FE7"/>
</linearGradient>
<linearGradient id="paint84_linear_806_227" x1="1276.21" y1="162.649" x2="1862.02" y2="689.229" gradientUnits="userSpaceOnUse">
<stop stop-color="#1BA4E5" stop-opacity="0.5"/>
<stop offset="1" stop-color="#B40FE7"/>
</linearGradient>
<linearGradient id="paint85_linear_806_227" x1="1263.82" y1="160.366" x2="1857.98" y2="694.446" gradientUnits="userSpaceOnUse">
<stop stop-color="#1BA4E5" stop-opacity="0.5"/>
<stop offset="1" stop-color="#B40FE7"/>
</linearGradient>
<linearGradient id="paint86_linear_806_227" x1="1248.73" y1="155.65" x2="1853.94" y2="699.663" gradientUnits="userSpaceOnUse">
<stop stop-color="#1BA4E5" stop-opacity="0.5"/>
<stop offset="1" stop-color="#B40FE7"/>
</linearGradient>
<linearGradient id="paint87_linear_806_227" x1="1233.62" y1="150.91" x2="1849.9" y2="704.88" gradientUnits="userSpaceOnUse">
<stop stop-color="#1BA4E5" stop-opacity="0.5"/>
<stop offset="1" stop-color="#B40FE7"/>
</linearGradient>
<linearGradient id="paint88_linear_806_227" x1="1218.48" y1="146.153" x2="1845.86" y2="710.096" gradientUnits="userSpaceOnUse">
<stop stop-color="#1BA4E5" stop-opacity="0.5"/>
<stop offset="1" stop-color="#B40FE7"/>
</linearGradient>
<linearGradient id="paint89_linear_806_227" x1="1203.33" y1="141.376" x2="1841.82" y2="715.313" gradientUnits="userSpaceOnUse">
<stop stop-color="#1BA4E5" stop-opacity="0.5"/>
<stop offset="1" stop-color="#B40FE7"/>
</linearGradient>
<linearGradient id="paint90_linear_806_227" x1="1188.14" y1="136.578" x2="1837.78" y2="720.53" gradientUnits="userSpaceOnUse">
<stop stop-color="#1BA4E5" stop-opacity="0.5"/>
<stop offset="1" stop-color="#B40FE7"/>
</linearGradient>
<linearGradient id="paint91_linear_806_227" x1="1172.94" y1="131.76" x2="1833.75" y2="725.746" gradientUnits="userSpaceOnUse">
<stop stop-color="#1BA4E5" stop-opacity="0.5"/>
<stop offset="1" stop-color="#B40FE7"/>
</linearGradient>
<clipPath id="clip0_806_227">
<rect width="871" height="955" fill="white"/>
</clipPath>
</defs>
</svg>
