<svg width="396" height="294" viewBox="0 0 396 294" fill="none" xmlns="http://www.w3.org/2000/svg">
<circle cx="249.75" cy="147" r="39.375" stroke="#3030A8" stroke-width="2.25"/>
<circle cx="249.75" cy="147" r="51.75" stroke="#3030A8" stroke-width="1.125"/>
<circle cx="249.75" cy="147" r="66.375" stroke="#3030A8" stroke-width="0.5625"/>
<circle cx="249.75" cy="147" r="83.25" stroke="#3030A8" stroke-width="0.28125"/>
<circle cx="249.75" cy="147" r="102.375" stroke="#3030A8" stroke-width="0.225"/>
<circle cx="249.75" cy="147" r="123.75" stroke="#3030A8" stroke-width="0.1125"/>
<circle cx="249.75" cy="147" r="145.125" stroke="#3030A8" stroke-width="0.05625"/>
<rect x="1.04953" y="122.175" width="274.651" height="50.7759" rx="25.388" fill="#1D1D61"/>
<path d="M27.6312 154.581C30.7705 154.581 32.443 152.574 32.443 150.001V145.704C32.443 143.13 30.7705 141.123 27.6312 141.123C24.492 141.123 22.8195 143.13 22.8195 145.704V150.001C22.8195 152.574 24.492 154.581 27.6312 154.581ZM27.6312 152.728C25.7786 152.728 24.8265 151.699 24.8265 150.001V145.678C24.8265 144.005 25.7786 142.976 27.6312 142.976C29.4839 142.976 30.4359 144.005 30.4359 145.678V150.001C30.4359 151.699 29.4839 152.728 27.6312 152.728ZM40.159 144.829C40.159 144.623 40.1333 144.365 40.0818 144.082C40.9567 143.413 41.9345 143.002 42.938 143.002C44.4819 143.002 45.3053 144.108 45.3053 146.064V153.577C45.3053 154.118 45.6655 154.555 46.3088 154.555C46.9521 154.555 47.3123 154.118 47.3123 153.577V146.064C47.3123 143.156 45.9486 141.201 43.221 141.201C41.9859 141.201 40.6736 141.561 39.5414 142.358C39.2584 141.921 38.9239 141.612 38.4607 141.612C37.9204 141.612 37.5087 141.998 37.5087 142.513C37.5087 142.77 37.6373 142.925 37.6888 143.027C37.9204 143.413 38.1519 143.413 38.1519 144.829V153.577C38.1519 154.118 38.4865 154.555 39.1555 154.555C39.8245 154.555 40.159 154.118 40.159 153.577V144.829ZM61.0989 146.784C61.0989 146.27 60.6872 145.832 60.1726 145.832H53.7655C53.2251 145.832 52.8134 146.27 52.8134 146.784C52.8134 147.299 53.2251 147.711 53.7655 147.711H60.1726C60.6872 147.711 61.0989 147.299 61.0989 146.784ZM66.515 151.956C66.515 154.272 67.4928 154.581 68.136 154.581C68.6507 154.581 69.0624 154.169 69.0624 153.655C69.0624 153.449 68.9594 153.269 68.8823 153.166C68.5735 152.857 68.522 152.522 68.522 151.956V136.723C68.522 136.157 68.0846 135.72 67.5185 135.72C66.9524 135.72 66.515 136.183 66.515 136.723V151.956ZM77.4132 137.186C77.4132 136.492 76.8729 135.951 76.1781 135.951C75.4834 135.951 74.943 136.492 74.943 137.186C74.943 137.855 75.4834 138.422 76.1781 138.422C76.8729 138.422 77.4132 137.855 77.4132 137.186ZM77.1816 153.577V142.23C77.1816 141.689 76.7442 141.226 76.1781 141.226C75.612 141.226 75.1746 141.689 75.1746 142.23V153.577C75.1746 154.143 75.612 154.581 76.1781 154.581C76.7442 154.581 77.1816 154.143 77.1816 153.577ZM85.9076 144.829C85.9076 144.623 85.8819 144.365 85.8304 144.082C86.7053 143.413 87.6831 143.002 88.6866 143.002C90.2305 143.002 91.0539 144.108 91.0539 146.064V153.577C91.0539 154.118 91.4141 154.555 92.0574 154.555C92.7007 154.555 93.0609 154.118 93.0609 153.577V146.064C93.0609 143.156 91.6971 141.201 88.9696 141.201C87.7345 141.201 86.4222 141.561 85.29 142.358C85.007 141.921 84.6725 141.612 84.2093 141.612C83.669 141.612 83.2573 141.998 83.2573 142.513C83.2573 142.77 83.3859 142.925 83.4374 143.027C83.669 143.413 83.9005 143.413 83.9005 144.829V153.577C83.9005 154.118 84.235 154.555 84.9041 154.555C85.5731 154.555 85.9076 154.118 85.9076 153.577V144.829ZM103.554 152.805C101.701 152.805 100.749 151.879 100.749 150.438V148.92C101.65 149.074 102.602 149.152 103.374 149.152C106.436 149.152 107.722 147.711 107.722 145.343C107.722 142.796 106.307 141.149 103.451 141.149C100.389 141.149 98.7421 143.027 98.7421 145.498V150.309C98.7421 152.728 100.415 154.581 103.322 154.581C104.712 154.581 107.491 154.169 107.491 152.908C107.491 152.445 107.105 152.008 106.59 152.008C106.41 152.008 106.281 152.059 106.23 152.085C105.329 152.497 104.635 152.805 103.554 152.805ZM105.741 145.343C105.741 146.398 105.407 147.453 103.451 147.453C102.936 147.453 101.701 147.402 100.749 147.273V145.318C100.749 143.877 101.727 142.976 103.399 142.976C104.892 142.976 105.741 143.671 105.741 145.343ZM127.597 152.805C125.744 152.805 124.792 151.879 124.792 150.438V148.92C125.693 149.074 126.645 149.152 127.417 149.152C130.479 149.152 131.765 147.711 131.765 145.343C131.765 142.796 130.35 141.149 127.494 141.149C124.432 141.149 122.785 143.027 122.785 145.498V150.309C122.785 152.728 124.457 154.581 127.365 154.581C128.755 154.581 131.534 154.169 131.534 152.908C131.534 152.445 131.148 152.008 130.633 152.008C130.453 152.008 130.324 152.059 130.273 152.085C129.372 152.497 128.677 152.805 127.597 152.805ZM129.784 145.343C129.784 146.398 129.449 147.453 127.494 147.453C126.979 147.453 125.744 147.402 124.792 147.273V145.318C124.792 143.877 125.77 142.976 127.442 142.976C128.935 142.976 129.784 143.671 129.784 145.343ZM153.955 147.144C153.158 146.913 152.283 146.784 151.356 146.784C148.32 146.784 146.828 148.071 146.828 150.592V150.695C146.828 153.011 148.114 154.581 150.765 154.581C152.154 154.581 153.312 154.118 154.29 153.217C154.676 154.015 155.37 154.504 156.22 154.504C156.786 154.504 157.378 154.272 157.378 153.629C157.378 153.191 157.12 152.754 156.631 152.754C156.528 152.754 156.503 152.78 156.425 152.78C156.117 152.78 155.962 152.522 155.962 152.008V146.347C155.962 142.95 154.676 141.149 151.459 141.149C149.684 141.149 147.754 141.638 147.857 142.822C147.883 143.208 148.088 143.671 148.577 143.671C148.86 143.671 149.169 143.491 149.246 143.465C149.812 143.156 150.301 142.925 151.202 142.925C153.055 142.925 153.955 143.799 153.955 145.678V147.144ZM151.331 148.483C152.103 148.483 153.106 148.611 153.955 148.868V151.647C153.055 152.419 152.18 152.78 151.073 152.78C149.349 152.78 148.809 151.931 148.809 150.721V150.618C148.809 149.46 149.221 148.483 151.331 148.483ZM166.626 154.581C169.765 154.581 171.438 152.574 171.438 150.001V145.704C171.438 143.13 169.765 141.123 166.626 141.123C163.487 141.123 161.814 143.13 161.814 145.704V150.001C161.814 152.574 163.487 154.581 166.626 154.581ZM166.626 152.728C164.773 152.728 163.821 151.699 163.821 150.001V145.678C163.821 144.005 164.773 142.976 166.626 142.976C168.479 142.976 169.431 144.005 169.431 145.678V150.001C169.431 151.699 168.479 152.728 166.626 152.728ZM195.848 142.487C196.028 141.818 195.514 141.226 194.896 141.226C194.51 141.226 194.124 141.509 193.996 141.895L191.037 151.596L188.026 141.895C187.872 141.458 187.511 141.226 187.125 141.226C186.534 141.226 185.942 141.792 186.148 142.41L189.724 153.397C190.007 154.221 190.342 154.581 191.037 154.581C191.706 154.581 192.066 154.221 192.349 153.371L195.848 142.487ZM203.18 137.186C203.18 136.492 202.64 135.951 201.945 135.951C201.251 135.951 200.71 136.492 200.71 137.186C200.71 137.855 201.251 138.422 201.945 138.422C202.64 138.422 203.18 137.855 203.18 137.186ZM202.949 153.577V142.23C202.949 141.689 202.511 141.226 201.945 141.226C201.379 141.226 200.942 141.689 200.942 142.23V153.577C200.942 154.143 201.379 154.581 201.945 154.581C202.511 154.581 202.949 154.143 202.949 153.577ZM217.831 142.487C218.011 141.818 217.496 141.226 216.879 141.226C216.493 141.226 216.107 141.509 215.978 141.895L213.019 151.596L210.008 141.895C209.854 141.458 209.494 141.226 209.108 141.226C208.516 141.226 207.924 141.792 208.13 142.41L211.707 153.397C211.99 154.221 212.324 154.581 213.019 154.581C213.688 154.581 214.048 154.221 214.331 153.371L217.831 142.487ZM226.909 154.581C230.048 154.581 231.721 152.574 231.721 150.001V145.704C231.721 143.13 230.048 141.123 226.909 141.123C223.77 141.123 222.097 143.13 222.097 145.704V150.001C222.097 152.574 223.77 154.581 226.909 154.581ZM226.909 152.728C225.056 152.728 224.104 151.699 224.104 150.001V145.678C224.104 144.005 225.056 142.976 226.909 142.976C228.761 142.976 229.713 144.005 229.713 145.678V150.001C229.713 151.699 228.761 152.728 226.909 152.728Z" fill="white"/>
<circle cx="251.438" cy="147.562" r="7.3125" fill="#FF0000"/>
<rect x="1.04953" y="122.175" width="274.651" height="50.7759" rx="25.388" stroke="white" stroke-width="2.09905"/>
</svg>
