<svg width="260" height="260" viewBox="0 0 260 260" fill="none" xmlns="http://www.w3.org/2000/svg">
<circle cx="130" cy="130" r="35" stroke="#3030A8" stroke-width="2"/>
<circle cx="130" cy="130" r="46" stroke="#3030A8"/>
<circle cx="130" cy="130" r="59" stroke="#3030A8" stroke-width="0.5"/>
<circle cx="130" cy="130" r="74" stroke="#3030A8" stroke-width="0.25"/>
<circle cx="130" cy="130" r="91" stroke="#3030A8" stroke-width="0.2"/>
<circle cx="130" cy="130" r="110" stroke="#3030A8" stroke-width="0.1"/>
<circle cx="130" cy="130" r="129" stroke="#3030A8" stroke-width="0.05"/>
<rect x="7.93291" y="107.933" width="145.534" height="44.7797" rx="22.3899" fill="#1D1D61"/>
<path d="M36.3649 129.573C35.6559 129.367 34.8782 129.253 34.0548 129.253C31.3559 129.253 30.0293 130.396 30.0293 132.638V132.729C30.0293 134.788 31.1729 136.183 33.5287 136.183C34.7638 136.183 35.7931 135.771 36.6622 134.971C37.0053 135.68 37.6229 136.114 38.3777 136.114C38.8809 136.114 39.4069 135.909 39.4069 135.337C39.4069 134.948 39.1782 134.559 38.7436 134.559C38.6521 134.559 38.6293 134.582 38.5606 134.582C38.2862 134.582 38.1489 134.353 38.1489 133.896V128.864C38.1489 125.845 37.0053 124.244 34.1463 124.244C32.5681 124.244 30.8527 124.678 30.9441 125.73C30.967 126.073 31.15 126.485 31.5846 126.485C31.8362 126.485 32.1106 126.325 32.1793 126.302C32.6824 126.028 33.117 125.822 33.9176 125.822C35.5644 125.822 36.3649 126.599 36.3649 128.269V129.573ZM34.0319 130.762C34.7181 130.762 35.6101 130.877 36.3649 131.105V133.576C35.5644 134.262 34.7867 134.582 33.8032 134.582C32.2707 134.582 31.7904 133.827 31.7904 132.752V132.661C31.7904 131.631 32.1564 130.762 34.0319 130.762ZM47.6277 136.183C50.4182 136.183 51.9049 134.399 51.9049 132.112V128.292C51.9049 126.005 50.4182 124.221 47.6277 124.221C44.8373 124.221 43.3506 126.005 43.3506 128.292V132.112C43.3506 134.399 44.8373 136.183 47.6277 136.183ZM47.6277 134.536C45.9809 134.536 45.1347 133.621 45.1347 132.112V128.269C45.1347 126.782 45.9809 125.868 47.6277 125.868C49.2745 125.868 50.1208 126.782 50.1208 128.269V132.112C50.1208 133.621 49.2745 134.536 47.6277 134.536ZM73.6032 125.433C73.7633 124.838 73.3059 124.312 72.7569 124.312C72.4139 124.312 72.0708 124.564 71.9564 124.907L69.3261 133.53L66.65 124.907C66.5128 124.518 66.1926 124.312 65.8495 124.312C65.3234 124.312 64.7974 124.815 64.9803 125.364L68.1596 135.131C68.4112 135.863 68.7085 136.183 69.3261 136.183C69.9208 136.183 70.241 135.863 70.4926 135.108L73.6032 125.433ZM80.1206 120.721C80.1206 120.104 79.6403 119.623 79.0227 119.623C78.4051 119.623 77.9248 120.104 77.9248 120.721C77.9248 121.316 78.4051 121.819 79.0227 121.819C79.6403 121.819 80.1206 121.316 80.1206 120.721ZM79.9147 135.291V125.204C79.9147 124.724 79.5259 124.312 79.0227 124.312C78.5195 124.312 78.1307 124.724 78.1307 125.204V135.291C78.1307 135.794 78.5195 136.183 79.0227 136.183C79.5259 136.183 79.9147 135.794 79.9147 135.291ZM93.143 125.433C93.3031 124.838 92.8456 124.312 92.2967 124.312C91.9536 124.312 91.6105 124.564 91.4962 124.907L88.8659 133.53L86.1898 124.907C86.0526 124.518 85.7323 124.312 85.3893 124.312C84.8632 124.312 84.3371 124.815 84.5201 125.364L87.6994 135.131C87.951 135.863 88.2483 136.183 88.8659 136.183C89.4605 136.183 89.7807 135.863 90.0323 135.108L93.143 125.433ZM101.212 136.183C104.003 136.183 105.49 134.399 105.49 132.112V128.292C105.49 126.005 104.003 124.221 101.212 124.221C98.422 124.221 96.9353 126.005 96.9353 128.292V132.112C96.9353 134.399 98.422 136.183 101.212 136.183ZM101.212 134.536C99.5656 134.536 98.7194 133.621 98.7194 132.112V128.269C98.7194 126.782 99.5656 125.868 101.212 125.868C102.859 125.868 103.706 126.782 103.706 128.269V132.112C103.706 133.621 102.859 134.536 101.212 134.536Z" fill="white"/>
<circle cx="131.5" cy="130.5" r="6.5" fill="#FF0000"/>
<rect x="7.93291" y="107.933" width="145.534" height="44.7797" rx="22.3899" stroke="white" stroke-width="1.86582"/>
</svg>
