<svg width="274" height="50" viewBox="0 0 274 50" fill="none" xmlns="http://www.w3.org/2000/svg">
<g clip-path="url(#clip0_803_4)">
<path fill-rule="evenodd" clip-rule="evenodd" d="M42.507 49.5264C41.2599 47.923 41.2955 45.037 40.1554 43.3623C36.2716 43.7186 32.3522 43.1842 31.6396 40.6544C31.319 39.5855 31.9959 37.9821 31.6396 36.6637C31.3546 35.5592 29.7868 34.8822 29.8225 33.9558C29.8581 33.1363 30.6063 32.6731 31.2833 32.495C29.003 31.8536 29.8937 29.6445 30.2144 27.9699C29.1455 27.3641 26.8651 27.9342 26.2238 26.8653C26.3663 23.0885 31.604 20.9506 31.319 17.245C31.2121 15.8911 29.5374 15.2853 29.3236 13.967C29.1099 12.6487 29.6799 10.6533 30.0363 9.4419C30.4995 7.87415 31.4971 6.37766 31.8534 4.5605C31.3546 3.06401 30.0006 2.10198 30.5707 0.0354004H12.114C12.6841 2.10198 11.3301 3.06401 10.8313 4.5605C11.1876 6.41329 12.1853 7.87415 12.6485 9.4419C13.0048 10.689 13.6105 12.6487 13.3611 13.967C13.1473 15.2853 11.4727 15.8911 11.3658 17.245C11.0451 20.9506 16.3184 23.0885 16.461 26.8653C15.8196 27.8986 13.5392 27.3285 12.4703 27.9699C12.791 29.6445 13.6818 31.8536 11.4014 32.495C12.0784 32.6731 12.791 33.1363 12.8623 33.9558C12.9335 34.9178 11.3301 35.5592 11.0451 36.6637C10.6888 37.9821 11.3658 39.5855 11.0451 40.6544C10.2969 43.1842 6.4131 43.7186 2.52936 43.3623C1.38918 45.037 1.38918 47.923 0.177734 49.5264H42.507Z" fill="#2D4C9D"/>
<path d="M50.2393 24.8348C50.2393 23.6234 50.5599 22.7326 51.2369 22.1269C51.9139 21.5568 52.8047 21.2717 53.8736 21.2717H55.7264L56.2965 23.3383H54.4437C53.8736 23.3383 53.4104 23.4808 53.1253 23.7302C52.8403 23.9797 52.6621 24.4429 52.6621 25.0486C52.6621 25.4405 52.7334 25.8325 52.8759 26.1888C53.0184 26.5807 53.2322 26.937 53.5173 27.2577C53.8023 27.5784 54.1586 27.8278 54.5862 28.0416C55.0138 28.2197 55.5126 28.3266 56.0827 28.3266C56.2252 28.3266 56.3321 28.3266 56.3677 28.3266L55.7976 30.3576H55.3701C54.6218 30.3576 53.9092 30.215 53.2679 29.8944C52.6265 29.5737 52.0564 29.1817 51.6289 28.6473C51.1657 28.1128 50.8093 27.5071 50.5599 26.8657C50.3461 26.1888 50.2393 25.5118 50.2393 24.8348Z" fill="#2D4C9D"/>
<path d="M62.6751 21.2717L63.2096 23.3383H59.5396V24.6923H62.8889L62.3545 26.7232H59.5753V28.3266H63.4946L62.9602 30.3576H57.2236V21.2717H62.6751Z" fill="#2D4C9D"/>
<path d="M71.5123 21.2717V30.3576H69.125V27.6853L66.6309 24.621H66.5953V30.3576H64.208V21.2717H66.4527L69.125 24.3716V21.2717H71.5123Z" fill="#2D4C9D"/>
<path d="M79.0647 21.2717L79.5992 23.3383H77.0694V30.3932H74.6821V23.3383H72.1523L72.7224 21.2717H79.0647Z" fill="#2D4C9D"/>
<path d="M80.1328 23.3383V21.2717H84.6579C85.2636 21.2717 85.7625 21.3786 86.19 21.5924C86.6176 21.8062 86.9026 22.0912 87.1164 22.4475C87.3302 22.8038 87.4371 23.1958 87.4371 23.659C87.4371 24.1934 87.2946 24.6923 86.9739 25.1555C86.6532 25.6187 86.1544 26.0819 85.4774 26.5451C85.8694 27.2933 86.2613 27.9347 86.6176 28.4691C86.9739 29.0036 87.4727 29.6449 88.1141 30.4288L86.1188 31.7828C85.7268 31.3196 85.3349 30.8208 84.9786 30.3219C84.6223 29.8231 84.3016 29.2886 83.9809 28.7542C83.6603 28.2197 83.4108 27.7565 83.1971 27.3289C82.9833 26.9014 82.8051 26.5094 82.627 26.1531C82.912 25.9393 83.1971 25.7256 83.5177 25.5118C83.8384 25.298 84.0878 25.0486 84.3372 24.7635C84.5867 24.4785 84.6935 24.2291 84.6935 23.944C84.6935 23.6946 84.5866 23.5165 84.4085 23.4808C84.2303 23.4096 83.9453 23.3739 83.589 23.3739H80.1328V23.3383ZM80.1328 30.3576V23.1958H82.5201V30.3576H80.1328Z" fill="#2D4C9D"/>
<path d="M88.1504 24.7276C88.1504 23.9437 88.2929 23.2667 88.578 22.7323C88.863 22.1978 89.2906 21.7702 89.9319 21.5208C90.5376 21.2358 91.3572 21.0933 92.3192 21.0933C92.9605 21.0933 93.5663 21.1645 94.0651 21.307C94.5639 21.4496 94.9915 21.6634 95.3478 21.9484C95.7041 22.2334 95.9535 22.6254 96.1317 23.0886C96.3098 23.5518 96.4167 24.1219 96.4167 24.7632C96.4167 25.4046 96.3454 26.0459 96.1673 26.7585C95.9891 27.4355 95.7397 28.0769 95.3834 28.6826C95.0271 29.2883 94.5995 29.7515 94.0651 30.1078C93.5306 30.4641 92.9605 30.6423 92.2836 30.6423C91.6778 30.6423 91.1077 30.4998 90.6089 30.1435C90.1101 29.8228 89.6469 29.3952 89.2906 28.8251C88.9343 28.255 88.6492 27.6493 88.4711 26.9367C88.2216 26.1885 88.1504 25.4402 88.1504 24.7276ZM90.7158 24.9057C90.7158 25.4046 90.7871 25.939 90.9296 26.4735C91.0721 27.008 91.2503 27.4355 91.4997 27.7918C91.7491 28.1481 91.9985 28.2907 92.2479 28.2907C92.5686 28.2907 92.8536 28.1125 93.1031 27.7206C93.3525 27.3286 93.5306 26.9011 93.6731 26.3666C93.8157 25.8321 93.8513 25.3333 93.8513 24.9057C93.8513 24.3 93.7088 23.8725 93.4237 23.5874C93.1387 23.338 92.7824 23.1955 92.3192 23.1955C91.7847 23.1955 91.3928 23.338 91.1434 23.5874C90.8227 23.8725 90.7158 24.3 90.7158 24.9057Z" fill="#2D4C9D"/>
<path d="M101.405 30.3573V23.1955H103.792V28.2907C104.362 28.2551 104.861 28.0769 105.289 27.7206C105.716 27.3999 106.037 26.9724 106.251 26.4735C106.464 25.9747 106.571 25.4759 106.571 25.0127C106.571 24.6207 106.5 24.2644 106.357 24.015C106.215 23.7656 106.037 23.5875 105.787 23.4449C105.538 23.338 105.217 23.2668 104.825 23.2668H101.369V21.2002H105.36C106.108 21.2002 106.749 21.3427 107.284 21.6278C107.818 21.9128 108.246 22.3047 108.531 22.8392C108.816 23.3737 108.958 24.015 108.994 24.7989C108.994 25.4759 108.887 26.1529 108.638 26.7942C108.388 27.4356 108.032 28.0413 107.533 28.5757C107.034 29.1102 106.464 29.5378 105.752 29.8228C105.039 30.1435 104.22 30.286 103.329 30.286H101.405V30.3573Z" fill="#2D4C9D"/>
<path d="M115.515 21.2717L116.05 23.3383H112.38V24.6923H115.729L115.159 26.7232H112.38V28.3266H116.299L115.765 30.3576H110.028V21.2717H115.515Z" fill="#2D4C9D"/>
<path d="M126.559 21.2717L127.094 23.3383H123.424V24.6923H126.773L126.203 26.7232H123.424V28.3266H127.343L126.809 30.3576H121.072V21.2717H126.559Z" fill="#2D4C9D"/>
<path d="M127.772 28.3264H129.945C130.266 28.3264 130.48 28.3264 130.622 28.2907C130.765 28.2551 130.836 28.1839 130.836 28.0413C130.836 27.9701 130.801 27.8632 130.765 27.7919C130.729 27.7207 130.658 27.6494 130.551 27.5425C130.48 27.4356 130.409 27.4 130.409 27.4L128.805 25.5828C128.556 25.3334 128.378 25.084 128.235 24.9058C128.093 24.692 127.95 24.4783 127.843 24.2288C127.736 23.9794 127.665 23.6944 127.665 23.4093C127.665 23.0174 127.772 22.6611 127.95 22.3404C128.128 22.0197 128.413 21.7703 128.77 21.5922C129.126 21.414 129.589 21.3071 130.124 21.3071H132.689L133.259 23.3737H131.228C130.907 23.3737 130.694 23.4093 130.551 23.4093C130.409 23.445 130.337 23.5162 130.337 23.6588C130.337 23.73 130.373 23.8369 130.409 23.9082C130.444 23.9794 130.551 24.122 130.729 24.3001L132.404 26.1529C132.76 26.5092 133.01 26.8655 133.223 27.1862C133.437 27.5069 133.508 27.8988 133.508 28.3264C133.508 28.6827 133.437 28.9677 133.33 29.2528C133.223 29.5022 133.045 29.716 132.831 29.8941C132.618 30.0723 132.368 30.1792 132.048 30.2861C131.763 30.3573 131.442 30.4286 131.05 30.4286H128.271L127.772 28.3264Z" fill="#2D4C9D"/>
<path d="M140.634 21.2717L141.169 23.3383H138.639V30.3932H136.251V23.3383H133.722L134.292 21.2717H140.634Z" fill="#2D4C9D"/>
<path d="M141.026 26.6163C141.026 26.0106 141.098 25.4049 141.24 24.8348C141.383 24.2291 141.561 23.659 141.81 23.0889C142.024 22.5188 142.309 21.9131 142.63 21.2717H145.195C145.088 21.5211 144.946 21.8418 144.732 22.2338C144.554 22.6257 144.376 23.0889 144.162 23.5521C143.984 24.0509 143.806 24.5498 143.663 25.0842C143.521 25.6187 143.449 26.1175 143.449 26.5807C143.449 27.0083 143.521 27.3646 143.663 27.614C143.806 27.8634 144.019 28.0416 144.269 28.1485C144.518 28.2553 144.839 28.3266 145.195 28.3266H146.05V21.2717H148.438V30.3576H144.589C143.342 30.3576 142.416 30.0369 141.846 29.3599C141.311 28.6829 141.026 27.7565 141.026 26.6163Z" fill="#2D4C9D"/>
<path d="M149.792 30.3573V23.1955H152.179V28.2907C152.749 28.2551 153.248 28.0769 153.676 27.7206C154.103 27.3999 154.424 26.9724 154.638 26.4735C154.852 25.9747 154.958 25.4759 154.958 25.0127C154.958 24.6207 154.887 24.2644 154.745 24.015C154.602 23.7656 154.424 23.5875 154.175 23.4449C153.925 23.338 153.604 23.2668 153.213 23.2668H149.792V21.2002H153.783C154.531 21.2002 155.172 21.3427 155.707 21.6278C156.241 21.9128 156.669 22.3047 156.954 22.8392C157.239 23.3737 157.381 24.015 157.417 24.7989C157.417 25.4759 157.31 26.1529 157.061 26.7942C156.811 27.4356 156.455 28.0413 155.956 28.5757C155.457 29.1102 154.887 29.5378 154.175 29.8228C153.462 30.1435 152.642 30.286 151.752 30.286H149.792V30.3573Z" fill="#2D4C9D"/>
<path d="M157.987 24.7276C157.987 23.9437 158.13 23.2667 158.415 22.7323C158.7 22.1978 159.127 21.7702 159.733 21.5208C160.339 21.2358 161.158 21.0933 162.12 21.0933C162.762 21.0933 163.368 21.1645 163.866 21.307C164.365 21.4496 164.793 21.6634 165.149 21.9484C165.505 22.2334 165.755 22.6254 165.933 23.0886C166.111 23.5518 166.218 24.1219 166.218 24.7632C166.218 25.4046 166.147 26.0459 165.969 26.7585C165.79 27.4355 165.541 28.0769 165.185 28.6826C164.828 29.2883 164.401 29.7515 163.866 30.1078C163.332 30.4641 162.762 30.6423 162.085 30.6423C161.479 30.6423 160.909 30.4998 160.41 30.1435C159.911 29.8228 159.448 29.3952 159.092 28.8251C158.736 28.255 158.45 27.6493 158.272 26.9367C158.094 26.1885 157.987 25.4402 157.987 24.7276ZM160.553 24.9057C160.553 25.4046 160.624 25.939 160.766 26.4735C160.909 27.008 161.087 27.4355 161.337 27.7918C161.586 28.1481 161.835 28.2907 162.085 28.2907C162.406 28.2907 162.691 28.1125 162.94 27.7206C163.189 27.3286 163.368 26.9011 163.51 26.3666C163.653 25.8321 163.688 25.3333 163.688 24.9057C163.688 24.3 163.546 23.8725 163.261 23.5874C162.976 23.338 162.619 23.1955 162.156 23.1955C161.622 23.1955 161.23 23.338 160.98 23.5874C160.695 23.8725 160.553 24.3 160.553 24.9057Z" fill="#2D4C9D"/>
<path d="M166.93 28.3264H169.103C169.424 28.3264 169.638 28.3264 169.78 28.2907C169.923 28.2551 169.994 28.1839 169.994 28.0413C169.994 27.9701 169.958 27.8632 169.923 27.7919C169.887 27.7207 169.816 27.6494 169.744 27.5425C169.673 27.4356 169.602 27.4 169.602 27.4L167.999 25.5828C167.749 25.3334 167.571 25.084 167.429 24.9058C167.286 24.692 167.143 24.4783 167.037 24.2288C166.93 23.9794 166.858 23.6944 166.858 23.4093C166.858 23.0174 166.965 22.6611 167.143 22.3404C167.322 22.0197 167.607 21.7703 167.963 21.5922C168.319 21.414 168.782 21.3071 169.317 21.3071H171.882L172.452 23.3737H170.421C170.101 23.3737 169.887 23.4093 169.744 23.4093C169.602 23.445 169.531 23.5162 169.531 23.6588C169.531 23.73 169.566 23.8369 169.602 23.9082C169.638 23.9794 169.744 24.122 169.923 24.3001L171.597 26.1529C171.954 26.5092 172.203 26.8655 172.417 27.1862C172.631 27.5069 172.702 27.8988 172.702 28.3264C172.702 28.6827 172.631 28.9677 172.524 29.2528C172.417 29.5022 172.239 29.716 172.025 29.8941C171.811 30.0723 171.562 30.1792 171.241 30.2861C170.956 30.3573 170.635 30.4286 170.279 30.4286H167.464L166.93 28.3264Z" fill="#2D4C9D"/>
<path d="M178.474 30.3568V23.2307H180.861V28.3259C181.431 28.2902 181.965 28.1121 182.393 27.7558C182.821 27.4351 183.141 27.0075 183.355 26.5087C183.569 26.0099 183.676 25.511 183.676 25.0478C183.676 24.6559 183.604 24.2996 183.462 24.0502C183.319 23.8008 183.141 23.6226 182.892 23.4801C182.642 23.3732 182.322 23.3019 181.93 23.3019H178.474V21.2354H182.464C183.212 21.2354 183.854 21.3779 184.388 21.6629C184.923 21.948 185.35 22.3399 185.635 22.8744C185.92 23.4088 186.063 24.0502 186.099 24.834C186.099 25.511 185.992 26.188 185.742 26.8294C185.493 27.4707 185.137 28.0764 184.638 28.6109C184.139 29.1454 183.569 29.5729 182.856 29.858C182.144 30.1787 181.324 30.3212 180.433 30.3212H178.474V30.3568Z" fill="#2D4C9D"/>
<path d="M188.023 31.6398C187.631 31.0697 187.31 30.3927 187.025 29.6445C186.74 28.8606 186.598 28.0411 186.598 27.1503C186.598 26.6159 186.669 26.0458 186.811 25.4757C186.954 24.9056 187.168 24.3355 187.488 23.7654C187.809 23.1953 188.237 22.7321 188.771 22.3402C189.306 21.9482 189.84 21.6632 190.446 21.5207C191.016 21.3781 191.8 21.3069 192.69 21.3069H194.044V23.3735H192.584C191.942 23.3735 191.835 23.3735 191.194 23.5516C190.766 23.6585 190.41 23.8723 190.054 24.193C189.733 24.5136 189.448 24.9412 189.27 25.5113H191.622V23.3022H194.009V30.464H191.693V27.5779H189.092C189.092 28.0411 189.163 28.5755 189.377 29.0744C189.555 29.6088 189.769 30.072 190.018 30.464L188.023 31.6398Z" fill="#2D4C9D"/>
<path d="M198.962 24.8341C198.962 23.6226 199.283 22.7319 199.96 22.1261C200.637 21.556 201.527 21.271 202.596 21.271H204.449L205.019 23.3376H203.166C202.596 23.3376 202.133 23.4801 201.848 23.7295C201.563 23.9789 201.42 24.4421 201.42 25.0479C201.42 25.4398 201.492 25.8317 201.634 26.188C201.777 26.58 201.991 26.9363 202.276 27.257C202.561 27.5776 202.917 27.827 203.344 28.0408C203.772 28.219 204.271 28.3259 204.841 28.3259C204.984 28.3259 205.09 28.3259 205.162 28.3259L204.592 30.3568H204.164C203.416 30.3568 202.703 30.2143 202.062 29.8936C201.42 29.5729 200.85 29.181 200.423 28.6465C199.96 28.1121 199.603 27.5064 199.354 26.865C199.104 26.188 198.962 25.511 198.962 24.8341Z" fill="#2D4C9D"/>
<path d="M205.48 24.7273C205.48 23.9435 205.623 23.2665 205.908 22.732C206.193 22.1976 206.621 21.77 207.262 21.5206C207.868 21.2355 208.687 21.093 209.649 21.093C210.291 21.093 210.896 21.1643 211.395 21.3068C211.894 21.4493 212.322 21.6631 212.678 21.9482C213.034 22.2332 213.284 22.6251 213.462 23.0883C213.64 23.5515 213.747 24.1216 213.747 24.763C213.747 25.4043 213.676 26.0457 213.497 26.7583C213.319 27.4353 213.07 28.0766 212.713 28.6824C212.357 29.2881 211.93 29.7513 211.395 30.1076C210.861 30.4639 210.291 30.642 209.614 30.642C209.008 30.642 208.438 30.4995 207.939 30.1432C207.44 29.8225 206.977 29.395 206.621 28.8249C206.264 28.2548 205.979 27.6491 205.801 26.9365C205.587 26.1882 205.48 25.44 205.48 24.7273ZM208.046 24.9055C208.046 25.4043 208.117 25.9388 208.26 26.4733C208.402 27.0077 208.58 27.4353 208.83 27.7916C209.079 28.1479 209.329 28.2904 209.578 28.2904C209.899 28.2904 210.184 28.1123 210.433 27.7203C210.683 27.3284 210.861 26.9008 211.003 26.3664C211.146 25.8319 211.181 25.3331 211.181 24.9055C211.181 24.2998 211.039 23.8722 210.754 23.5872C210.469 23.3378 210.112 23.1952 209.649 23.1952C209.115 23.1952 208.723 23.3378 208.473 23.5872C208.188 23.8722 208.046 24.2998 208.046 24.9055Z" fill="#2D4C9D"/>
<path d="M222.157 21.271V30.3568H219.77V27.6845L217.275 24.6203H217.24V30.3568H214.853V21.271H217.097L219.77 24.3709V21.271H222.157Z" fill="#2D4C9D"/>
<path d="M223.332 28.3261H225.506C225.827 28.3261 226.04 28.3261 226.183 28.2905C226.325 28.2549 226.397 28.1836 226.397 28.0411C226.397 27.9698 226.361 27.8629 226.325 27.7917C226.29 27.7204 226.219 27.6491 226.112 27.5423C226.04 27.4354 225.969 27.3997 225.969 27.3997L224.366 25.5826C224.116 25.3332 223.938 25.0837 223.796 24.9056C223.653 24.6918 223.511 24.478 223.404 24.2286C223.297 23.9792 223.226 23.6941 223.226 23.4091C223.226 23.0172 223.332 22.6608 223.511 22.3402C223.689 22.0195 223.974 21.7701 224.33 21.5919C224.686 21.4138 225.15 21.3069 225.684 21.3069H228.25L228.82 23.3735H226.789C226.468 23.3735 226.254 23.4091 226.112 23.4091C225.969 23.4447 225.898 23.516 225.898 23.6585C225.898 23.7298 225.934 23.8367 225.969 23.9079C226.005 23.9792 226.112 24.1217 226.29 24.2999L227.964 26.1527C228.321 26.509 228.57 26.8653 228.784 27.1859C228.998 27.5066 229.069 27.8986 229.069 28.3261C229.069 28.6824 228.998 28.9675 228.891 29.2525C228.784 29.5019 228.606 29.7157 228.392 29.8939C228.178 30.072 227.929 30.1789 227.608 30.2858C227.323 30.3571 227.002 30.4283 226.611 30.4283H223.831L223.332 28.3261Z" fill="#2D4C9D"/>
<path d="M229.496 24.8341C229.496 23.6226 229.817 22.7319 230.494 22.1261C231.171 21.556 232.062 21.271 233.13 21.271H234.983L235.553 23.3376H233.701C233.13 23.3376 232.667 23.4801 232.382 23.7295C232.097 23.9789 231.955 24.4421 231.955 25.0479C231.955 25.4398 232.026 25.8317 232.168 26.188C232.311 26.58 232.525 26.9363 232.81 27.257C233.095 27.5776 233.451 27.827 233.879 28.0408C234.306 28.219 234.805 28.3259 235.375 28.3259C235.518 28.3259 235.625 28.3259 235.66 28.3259L235.09 30.3568H234.663C233.879 30.3568 233.202 30.2143 232.56 29.8936C231.919 29.5729 231.349 29.181 230.921 28.6465C230.458 28.1121 230.102 27.5064 229.852 26.865C229.603 26.188 229.496 25.511 229.496 24.8341Z" fill="#2D4C9D"/>
<path d="M238.867 21.271V30.3568H236.479V21.271H238.867Z" fill="#2D4C9D"/>
<path d="M245.923 21.271L246.457 23.3376H242.787V24.6916H246.136L245.566 26.7225H242.787V28.3259H246.707L246.172 30.3569H240.436V21.271H245.923ZM244.034 18.8838L245.139 20.5941H243.607L243.215 19.9171L242.823 20.5941H241.326L242.395 18.8838H244.034Z" fill="#2D4C9D"/>
<path d="M254.724 21.271V30.3568H252.337V27.6845L249.843 24.6203H249.807V30.3568H247.42V21.271H249.665L252.337 24.3709V21.271H254.724Z" fill="#2D4C9D"/>
<path d="M255.828 24.8341C255.828 23.6226 256.149 22.7319 256.826 22.1261C257.503 21.556 258.394 21.271 259.462 21.271H261.315L261.885 23.3376H260.033C259.462 23.3376 258.999 23.4801 258.714 23.7295C258.429 23.9789 258.287 24.4421 258.287 25.0479C258.287 25.4398 258.358 25.8317 258.5 26.188C258.643 26.58 258.857 26.9363 259.142 27.257C259.427 27.5776 259.783 27.827 260.211 28.0408C260.638 28.219 261.137 28.3259 261.707 28.3259C261.85 28.3259 261.957 28.3259 261.992 28.3259L261.422 30.3568H260.995C260.211 30.3568 259.534 30.2143 258.892 29.8936C258.251 29.5729 257.681 29.181 257.253 28.6465C256.79 28.1121 256.434 27.5064 256.184 26.865C255.971 26.188 255.828 25.511 255.828 24.8341Z" fill="#2D4C9D"/>
<path d="M265.34 21.271V30.3568H262.953V21.271H265.34Z" fill="#2D4C9D"/>
<path d="M267.835 31.6398C267.443 31.0697 267.123 30.3927 266.838 29.6445C266.553 28.8606 266.41 28.0411 266.41 27.1503C266.41 26.6159 266.481 26.0458 266.624 25.4757C266.766 24.9056 266.98 24.3355 267.301 23.7654C267.622 23.1953 268.049 22.7321 268.584 22.3402C269.118 21.9482 269.653 21.6632 270.258 21.5207C270.828 21.3781 271.612 21.3069 272.503 21.3069H273.857V23.3735H272.396C271.897 23.3735 271.434 23.4447 271.007 23.5516C270.579 23.6585 270.223 23.8723 269.866 24.193C269.546 24.5136 269.261 24.9412 269.082 25.5113H271.434V23.3022H273.821V30.464H271.434V27.5779H268.833C268.833 28.0411 268.904 28.5755 269.118 29.0744C269.296 29.6088 269.51 30.072 269.759 30.464L267.835 31.6398Z" fill="#2D4C9D"/>
<path d="M50.3105 48.3152H273.359" stroke="#2D4C9D" stroke-width="2.49415" stroke-miterlimit="10"/>
<path d="M50.3105 45.4648H273.359" stroke="#2D4C9D" stroke-width="1.42523" stroke-miterlimit="10"/>
</g>
<defs>
<clipPath id="clip0_803_4">
<rect width="274" height="49.883" fill="white"/>
</clipPath>
</defs>
</svg>
