<svg width="17" height="17" viewBox="0 0 17 17" fill="none" xmlns="http://www.w3.org/2000/svg">
<path d="M10.0801 2.65093L8.91291 1.48372C8.60337 1.17409 8.18352 1.00009 7.7457 1H2.65093C2.21308 1 1.79316 1.17394 1.48355 1.48355C1.17394 1.79316 1 2.21308 1 2.65093V7.7457C1.00009 8.18352 1.17409 8.60337 1.48372 8.91291L2.65093 10.0801M14.2074 6.77826L15.5166 8.08744C15.8261 8.39704 16 8.81688 16 9.25465C16 9.69242 15.8261 10.1123 15.5166 10.4219L10.4219 15.5166C10.1123 15.8261 9.69242 16 9.25465 16C8.81688 16 8.39704 15.8261 8.08744 15.5166L6.77826 14.2074M4.30186 4.30186H4.30269M15.8584 1L1 15.8584" stroke="url(#paint0_linear_819_41)" stroke-width="1.5" stroke-linecap="round" stroke-linejoin="round"/>
<defs>
<linearGradient id="paint0_linear_819_41" x1="1.86022" y1="2.97635" x2="14.5313" y2="15.9894" gradientUnits="userSpaceOnUse">
<stop stop-color="#00CCFC"/>
<stop offset="1" stop-color="#00DEFC"/>
</linearGradient>
</defs>
</svg>
