<svg width="78" height="78" viewBox="0 0 78 78" fill="none" xmlns="http://www.w3.org/2000/svg">
<rect width="77.5821" height="77.5821" rx="38.791" fill="#00A92F"/>
<path d="M38.7903 18.7855C35.3159 18.7852 31.9013 19.6898 28.8827 21.4102C25.8642 23.1306 23.3457 25.6075 21.5753 28.5971C19.8048 31.5866 18.8435 34.9857 18.7859 38.4596C18.7284 41.9336 19.5766 45.3626 21.247 48.4092L19.6119 54.18C19.4593 54.7059 19.4508 55.263 19.5871 55.7933C19.7233 56.3236 19.9995 56.8076 20.3866 57.1948C20.7738 57.5819 21.2578 57.8581 21.7881 57.9944C22.3184 58.1306 22.8755 58.1221 23.4014 57.9695L29.1723 56.3345C31.8466 57.8002 34.8207 58.6352 37.8672 58.7755C40.9137 58.9158 43.952 58.3577 46.7497 57.1439C49.5475 55.9302 52.0308 54.0928 54.0097 51.7723C55.9886 49.4518 57.4107 46.7095 58.1675 43.7552C58.9242 40.8008 58.9955 37.7126 58.3759 34.7265C57.7563 31.7404 56.4622 28.9354 54.5924 26.5261C52.7227 24.1167 50.3269 22.1667 47.5881 20.8251C44.8493 19.4836 41.8401 18.7859 38.7903 18.7855ZM38.7903 55.7189C35.7516 55.7161 32.7692 54.8991 30.1533 53.3528C29.9119 53.2183 29.6409 53.1456 29.3646 53.1413C29.2216 53.1414 29.0793 53.1609 28.9414 53.199L22.555 55.0264L24.3824 48.64C24.4387 48.4379 24.454 48.2266 24.4276 48.0185C24.4012 47.8105 24.3335 47.6097 24.2286 47.4281C22.3229 44.216 21.5331 40.4638 21.9821 36.7561C22.4311 33.0483 24.0937 29.5931 26.7109 26.9287C29.3281 24.2643 32.7531 22.5402 36.4522 22.0251C40.1514 21.5099 43.917 22.2325 47.1627 24.0805C50.4083 25.9284 52.9517 28.7978 54.3967 32.2418C55.8417 35.6858 56.1071 39.511 55.1517 43.1216C54.1962 46.7321 52.0736 49.9253 49.1142 52.2038C46.1549 54.4823 42.5252 55.7182 38.7903 55.7189ZM48.8893 41.6957L44.9459 39.4451C44.4736 39.1733 43.937 39.0335 43.3921 39.0402C42.8473 39.047 42.3143 39.2001 41.8489 39.4836L39.5598 40.8493C38.392 40.1626 37.4188 39.1894 36.7321 38.0216L38.0978 35.7325C38.3813 35.2671 38.5344 34.7341 38.5412 34.1893C38.5479 33.6444 38.4081 33.1078 38.1363 32.6355L35.8857 28.6921C35.6354 28.2547 35.2742 27.891 34.8386 27.6377C34.4029 27.3844 33.9081 27.2505 33.4042 27.2494C31.5709 27.2494 29.8124 27.9763 28.5143 29.2709C27.2161 30.5654 26.4843 32.3219 26.4792 34.1552C26.4792 38.6465 28.262 42.9541 31.4361 46.1317C34.6101 49.3094 38.9157 51.0971 43.407 51.1022H43.4262C45.2595 51.0971 47.016 50.3653 48.3105 49.0671C49.6051 47.769 50.332 46.0105 50.332 44.1772C50.3309 43.6733 50.197 43.1785 49.9437 42.7429C49.6904 42.3072 49.3267 41.946 48.8893 41.6957ZM43.4262 48.0244C41.6042 48.027 39.7996 47.67 38.1157 46.9739C36.4319 46.2778 34.9019 45.2562 33.6135 43.9679C32.3252 42.6795 31.3037 41.1495 30.6076 39.4657C29.9115 37.7819 29.5544 35.9772 29.557 34.1552C29.5567 33.1564 29.9467 32.197 30.644 31.4818C31.3412 30.7666 32.2903 30.3523 33.2888 30.3272L35.4625 34.1552L33.6543 37.156C33.5291 37.37 33.4568 37.6108 33.4435 37.8584C33.4301 38.106 33.476 38.3532 33.5773 38.5795C34.6494 40.9984 36.583 42.932 39.0019 44.0041C39.2282 44.1054 39.4754 44.1513 39.723 44.1379C39.9706 44.1246 40.2114 44.0523 40.4254 43.9271L43.4262 42.1189L47.2542 44.2926C47.2291 45.2911 46.8148 46.2402 46.0996 46.9375C45.3844 47.6347 44.425 48.0247 43.4262 48.0244Z" fill="white"/>
</svg>
